<svg id="Layer_1" data-name="Layer 1" xmlns="http://www.w3.org/2000/svg" viewBox="0 0 612 119"><defs><style>.cls-1{fill:#2d1347;}.cls-2{fill:#bfe6ed;}.cls-3{fill:#fff;}.cls-4{fill:#e92829;}</style></defs><g id="Car"><path class="cls-1" d="M242.06,49.78a12,12,0,1,0,12-11.93A12,12,0,0,0,242.06,49.78Zm3.14,0a8.83,8.83,0,1,1,8.8,8.86A8.82,8.82,0,0,1,245.2,49.79Z"/><path class="cls-1" d="M206.92,49.68a12,12,0,1,0,12-11.93A12,12,0,0,0,206.92,49.68Zm3.13,0a8.83,8.83,0,1,1,8.81,8.85A8.83,8.83,0,0,1,210.05,49.69Z"/><circle class="cls-2" cx="233.21" cy="51.5" r="2.66"/><circle class="cls-2" cx="254.02" cy="49.82" r="2.43"/><circle class="cls-2" cx="218.88" cy="49.72" r="2.43"/><ellipse class="cls-2" cx="233.21" cy="51.5" rx="2.71" ry="2.66" transform="translate(181.02 284.56) rotate(-89.83)"/><rect class="cls-2" x="250.79" y="40.73" width="1.8" height="9.95" transform="translate(504.57 7.2) rotate(161.05)"/><rect class="cls-2" x="249.55" y="36.09" width="1.16" height="10.14" transform="translate(500.07 -1.13) rotate(161.05)"/><rect class="cls-2" x="229.88" y="37.13" width="1.33" height="13.94" transform="translate(462.91 10.95) rotate(161.05)"/><rect class="cls-2" x="225.86" y="43.82" width="0.86" height="13.94" transform="translate(305.75 -167.1) rotate(97.39)"/><rect class="cls-2" x="222.77" y="36.46" width="0.86" height="14.71" transform="translate(103.81 -149.79) rotate(47.23)"/><rect class="cls-2" x="227.82" y="30.13" width="0.64" height="13.94" transform="translate(455.96 -1.89) rotate(161.05)"/><rect class="cls-2" x="228.46" y="35.11" width="18.35" height="1.25" transform="translate(472.86 -13.41) rotate(159.65)"/><rect class="cls-2" x="227.78" y="41.55" width="22.5" height="1.69" transform="translate(409.72 -130.22) rotate(124.62)"/><path class="cls-2" d="M248.52,38.27l-3.39-3.22L243,38.13l.71-3.2,1.85-2.8-1.18-1.57.49-.87,1.94-.73.68-.54,1-.09s.9,1.81.77,2.05-.41.31-.75-.18-.5-.68-.5-.68l-2.15.82,1.83,4.46,1.3,1.38Z"/><polygon class="cls-1" points="230.63 29.42 225.18 30.91 221.67 29.42 222.03 28.62 229.65 29.03 230.63 29.42"/><path class="cls-2" d="M216.8,50.5l-.23.51L218,52.3l.86.33-.26,1.54-.55.9.34.93.82,0c.28,0-.2-1.08-.2-1.08l1-1.62L219.61,51Z"/><rect class="cls-2" x="236.88" y="50.4" width="1.23" height="2.38" transform="translate(93.56 247.42) rotate(-65.94)"/><rect class="cls-2" x="234.39" y="51.32" width="3.37" height="0.65" transform="translate(472 103.99) rotate(-179.83)"/><path class="cls-2" d="M232.78,49.19l-.44,4.63L219.08,55.9l-.29-.74.94-1.53.07-.11,0-.13-.46-4.19h13.46m.43-.39H218.88l.51,4.63-1,1.69.48,1.22,13.87-2.18.51-5.36Z"/><path class="cls-2" d="M218.69,55.11a.43.43,0,0,1,0,.85.43.43,0,0,1-.43-.43.44.44,0,0,1,.43-.42m0-.4a.82.82,0,1,0,.82.82.82.82,0,0,0-.82-.82Z"/><polygon class="cls-1" points="309.3 107.17 304.17 108.89 286.15 108.83 279.55 110.66 281.13 99.28 295.46 92.51 305.56 96.36 309.31 105.32 309.3 107.17"/><polygon class="cls-1" points="224.76 110.01 218.29 108.2 200.79 105.81 194.35 107.21 196.66 99.44 204.39 94.65 215.31 94.99 220.66 99 222.99 105.81 224.76 110.01"/><path class="cls-2" d="M309,108.63l2.47.22,2.2-3.94-.1-5.48.06-8.38-35.57-6.31L258,70.68l-26.95-1-17.21,1.73-22.06,16.2-2.32,7.88v4l1.19,5.37,1.52,2.7,4.17.73s.61-12.48,12.88-12.07c14.13.47,12.45,15.41,15,15.42l55.32.16c1.31,0,1.45-16.62,15.85-16.58C308.65,95.17,309,108.63,309,108.63Z"/><circle class="cls-1" cx="295.41" cy="109.33" r="10.18"/><circle class="cls-3" cx="295.41" cy="109.33" r="5.9"/><circle class="cls-3" cx="295.41" cy="109.33" r="1.2"/><circle class="cls-1" cx="209.56" cy="109.08" r="10.18"/><circle class="cls-3" cx="209.56" cy="109.08" r="5.9"/><polygon class="cls-1" points="235.01 84.91 269.28 85.01 257.31 73.62 234.24 72.77 235.01 84.91"/><polygon class="cls-1" points="231.21 72.9 216.08 73.81 208.32 81.2 211.97 84.04 230.98 84.32 231.21 72.9"/><rect class="cls-4" x="307.6" y="90.82" width="2.92" height="5.22" transform="translate(214.73 402.21) rotate(-89.83)"/><rect class="cls-4" x="191.64" y="94.93" width="2.34" height="4.5" transform="matrix(0, -1, 1, 0, 95.07, 289.71)"/><rect class="cls-3" x="234.6" y="88.58" width="5.48" height="1.68" transform="translate(474.42 179.52) rotate(-179.83)"/><polygon class="cls-1" points="312.83 103.93 320.55 103.95 320.56 99.4 311.26 99.37 312.83 103.93"/><polygon class="cls-1" points="191.17 103.57 184.43 103.55 184.44 99 192.76 99.02 191.17 103.57"/><polygon class="cls-4" points="191.67 87.13 193.35 86.85 194.41 87.45 191.87 95.11 189.49 95.45 188.75 94.6 191.67 87.13"/><polygon class="cls-1" points="259.33 71.59 278.08 84.74 273.12 84.85 259.33 71.59"/><polygon class="cls-2" points="267.73 59.7 262.23 62.05 245.89 62.03 207.62 61.99 200.37 59.63 208.22 60.81 261.72 60.87 267.73 59.7"/><polygon class="cls-2" points="247.53 59.68 245.61 56.63 241.36 56.63 239.43 59.67 239.39 61.47 247.48 62.03 247.53 59.68"/><polygon class="cls-2" points="230.26 59.66 228.34 56.61 224.08 56.61 222.16 59.65 222.12 61.45 230.21 62.02 230.26 59.66"/><polygon class="cls-2" points="204.23 64.34 209.73 61.99 226.07 62.01 264.33 62.05 271.59 64.41 263.74 63.23 210.23 63.17 204.23 64.34"/><polygon class="cls-2" points="224.42 64.36 226.35 67.41 230.6 67.42 232.53 64.37 232.57 62.57 224.47 62.01 224.42 64.36"/><polygon class="cls-2" points="241.69 64.38 243.62 67.43 247.87 67.44 249.8 64.39 249.84 62.59 241.75 62.03 241.69 64.38"/><polygon class="cls-1" points="254.87 71.72 252.94 63.24 250.93 63.2 248.63 71.61 254.87 71.72"/><polygon class="cls-1" points="250.97 59.45 252.98 59.44 252.92 63.31 250.91 63.33 250.97 59.45"/><polygon class="cls-1" points="222.61 71.57 219.43 63.47 217.44 63.73 216.42 72.39 222.61 71.57"/><polygon class="cls-1" points="217.46 59.36 219.47 59.33 219.45 63.91 217.43 63.95 217.46 59.36"/><circle class="cls-3" cx="209.56" cy="109.08" r="5.9"/><path class="cls-1" d="M224.28,111.55l55.32.16c.35,0,.63-1.22,1.12-3l-58.09-.25C223.14,110.27,223.53,111.55,224.28,111.55Z"/></g></svg>