<svg id="Layer_1" data-name="Layer 1" xmlns="http://www.w3.org/2000/svg" viewBox="0 0 612 119"><defs><style>.cls-1{fill:#2d1347;}.cls-2{fill:#bfe6ed;}.cls-3,.cls-5{fill:none;stroke:#fff;stroke-width:0.5px;}.cls-3{stroke-dasharray:2 2;}.cls-4{fill:#fff;}.cls-6{fill:#e92829;}</style></defs><title>Doof Web Art v111</title><rect class="cls-1" x="525.12" y="44.89" width="86.88" height="4.46"/><polygon class="cls-2" points="612 -0.01 525.12 44.89 612 44.89 612 -0.01"/><polygon class="cls-2" points="531.69 49.35 531.69 58.18 533.48 58.18 533.48 119.26 612 119.26 612 49.35 531.69 49.35"/><line class="cls-3" x1="206.3" y1="28.18" x2="95.26" y2="28.18"/><path class="cls-4" d="M197.69,72.68c-.35,1-1.5,1.25-2,2a.82.82,0,0,0-.16.44.32.32,0,0,0,.07.22,2.57,2.57,0,0,1,.65,1.35,2,2,0,0,1-.51,1.13,1.31,1.31,0,0,1-1.09.55,1.93,1.93,0,0,1-1.32-.55.67.67,0,0,1-.23-.53,3.4,3.4,0,0,1,.56-1.41c.24-.47.57-.68.57-1a.65.65,0,0,0-.22-.43,2.24,2.24,0,0,1-.6-1.4,1.56,1.56,0,0,1,.34-1,3.16,3.16,0,0,1,1.45-.94.78.78,0,0,1,.35-.06,1.36,1.36,0,0,1,1.18.7.23.23,0,0,1,0,.14c0,.19-.14.4-.29.4l-.08,0a2.3,2.3,0,0,0-.93-.36.84.84,0,0,0-.46.17c-.51.34-.7.67-.7,1a1.28,1.28,0,0,0,.34.79c.13.17.22.22.27.22s.13-.1.23-.14c.84-.41,1.43-1.47,2.17-1.9a.64.64,0,0,1,.28-.09c.13,0,.19.09.19.25A1.17,1.17,0,0,1,197.69,72.68Zm-2.22,3.88a1.49,1.49,0,0,0-.43-.74.37.37,0,0,0-.27-.15.26.26,0,0,0-.22.13,6.77,6.77,0,0,0-.74,1.3.35.35,0,0,0,0,.14.39.39,0,0,0,.39.38h.19a1.42,1.42,0,0,0,.83-.29.63.63,0,0,0,.3-.55A.9.9,0,0,0,195.47,76.56Z"/><path class="cls-4" d="M198.66,73.47a.28.28,0,0,1-.42-.31.45.45,0,0,1,.14-.33c.52-.55.48-1.51.6-2.41a.45.45,0,0,1,.49-.34c.23,0,.47.13.47.37C199.94,71.78,199.77,72.91,198.66,73.47Z"/><path class="cls-4" d="M205,76.15a1.94,1.94,0,0,1-1.9,1.32,1.77,1.77,0,0,1-.77-.18,2.21,2.21,0,0,1-1.55-2.08,3.75,3.75,0,0,1,0-.45c.15-1.11,2.08-3.3,3.26-3.81l.15,0c.23,0,.37.28.37.5s-.06.28-.16.31a6.43,6.43,0,0,0-2.86,2.86,3,3,0,0,0-.08.59c0,.43.17.58.37.58a.79.79,0,0,0,.37-.13,3.34,3.34,0,0,1,1.94-.66.85.85,0,0,1,.84,1A.93.93,0,0,1,205,76.15Zm-.92-.33h-.12a4.33,4.33,0,0,0-1.08.37c-.17.06-.23.13-.23.2s.19.26.3.29a.6.6,0,0,0,.26,0,2,2,0,0,0,1-.54.22.22,0,0,0,.1-.16C204.31,75.92,204.15,75.86,204,75.82Z"/><path class="cls-4" d="M206.68,73.19a.25.25,0,0,1-.21.11.44.44,0,0,1-.4-.39.26.26,0,0,1,0-.15,5,5,0,0,0,.61-2.55A.2.2,0,0,1,207,70c.29,0,.72.27.72.56A4.41,4.41,0,0,1,206.68,73.19Zm1.42.49a.24.24,0,0,1-.44-.16.36.36,0,0,1,.05-.19,7.67,7.67,0,0,0,.64-2.73c.07-.47.28-.67.48-.67a.36.36,0,0,1,.33.28,2.42,2.42,0,0,1,.15.82A4.31,4.31,0,0,1,208.1,73.68Z"/><line class="cls-5" x1="199.59" y1="80.85" x2="199.59" y2="117.6"/><polygon class="cls-4" points="198.37 116.61 198.59 116.4 199.59 117.49 200.6 116.4 200.82 116.61 199.59 117.93 198.37 116.61"/><line class="cls-5" x1="199.59" y1="30.09" x2="199.59" y2="66.85"/><polygon class="cls-4" points="198.37 31.09 198.59 31.29 199.59 30.21 200.6 31.29 200.82 31.09 199.59 29.77 198.37 31.09"/><line class="cls-3" x1="405.7" y1="58.18" x2="528.74" y2="58.18"/><path class="cls-4" d="M414,86.81c-.76,1.5-1.92,4.18-1.89,5.39v.17c0,.33-.09.52-.22.52s-.21-.09-.35-.26a1.17,1.17,0,0,1-.2-.73c0-1.27,1.09-3.43,1.48-4.52a1.38,1.38,0,0,0,.07-.31c0-.2-.18-.18-.36-.22a5.27,5.27,0,0,0-.71,0c-.5,0-1,.07-1.49.07a1.59,1.59,0,0,1-1-.25.51.51,0,0,1-.18-.38c0-.17.09-.3.23-.31.42,0,1-.05,1.61-.05a13.78,13.78,0,0,1,2.62.19c.24.05.46.19.46.45A.58.58,0,0,1,414,86.81Z"/><path class="cls-4" d="M415.34,87.93a.28.28,0,0,1-.42-.31.45.45,0,0,1,.14-.33c.52-.55.49-1.51.6-2.41a.45.45,0,0,1,.49-.34c.24,0,.47.13.47.38C416.62,86.24,416.46,87.38,415.34,87.93Z"/><line class="cls-5" x1="412.41" y1="95.58" x2="412.41" y2="117.6"/><polygon class="cls-4" points="411.18 116.61 411.4 116.4 412.41 117.49 413.41 116.4 413.63 116.61 412.41 117.93 411.18 116.61"/><line class="cls-5" x1="412.41" y1="60.36" x2="412.41" y2="82.38"/><polygon class="cls-4" points="411.18 61.35 411.4 61.56 412.41 60.48 413.41 61.56 413.63 61.35 412.41 60.03 411.18 61.35"/><path class="cls-1" d="M86.92,49.78a12,12,0,1,0,12-11.93A12,12,0,0,0,86.92,49.78Zm3.14,0a8.83,8.83,0,1,1,8.8,8.86A8.83,8.83,0,0,1,90.06,49.79Z"/><path class="cls-1" d="M51.78,49.68a12,12,0,1,0,12-11.93A12,12,0,0,0,51.78,49.68Zm3.14,0a8.83,8.83,0,1,1,8.8,8.85A8.82,8.82,0,0,1,54.92,49.69Z"/><circle class="cls-2" cx="78.07" cy="51.5" r="2.66"/><circle class="cls-2" cx="98.89" cy="49.82" r="2.43"/><circle class="cls-2" cx="63.75" cy="49.72" r="2.43"/><ellipse class="cls-2" cx="78.07" cy="51.5" rx="2.71" ry="2.66" transform="translate(26.34 129.42) rotate(-89.83)"/><rect class="cls-2" x="95.65" y="40.73" width="1.8" height="9.95" transform="translate(202.71 57.58) rotate(161.05)"/><rect class="cls-2" x="94.41" y="36.09" width="1.16" height="10.14" transform="translate(198.2 49.25) rotate(161.05)"/><rect class="cls-2" x="74.74" y="37.13" width="1.33" height="13.94" transform="translate(161.05 61.33) rotate(161.05)"/><rect class="cls-2" x="70.73" y="43.82" width="0.86" height="13.94" transform="translate(130.67 -13.25) rotate(97.39)"/><rect class="cls-2" x="67.64" y="36.46" width="0.86" height="14.71" transform="translate(54.02 -35.9) rotate(47.23)"/><rect class="cls-2" x="72.68" y="30.13" width="0.64" height="13.94" transform="translate(154.1 48.49) rotate(161.05)"/><rect class="cls-2" x="73.32" y="35.11" width="18.35" height="1.25" transform="translate(172.28 40.55) rotate(159.65)"/><rect class="cls-2" x="72.64" y="41.55" width="22.5" height="1.69" transform="translate(166.44 -2.56) rotate(124.62)"/><path class="cls-2" d="M93.38,38.27,90,35.05l-2.12,3.08.7-3.2,1.85-2.8-1.18-1.57.5-.87L91.67,29l.68-.54,1-.09s.91,1.81.77,2.05-.41.31-.75-.18-.49-.68-.49-.68l-2.15.82,1.82,4.46,1.31,1.38Z"/><polygon class="cls-1" points="75.49 29.42 70.04 30.91 66.54 29.42 66.89 28.62 74.52 29.03 75.49 29.42"/><path class="cls-2" d="M61.66,50.5l-.22.51,1.38,1.29.87.33-.27,1.54-.55.9.35.93L64,56c.28,0-.2-1.08-.2-1.08l1-1.62L64.47,51Z"/><rect class="cls-2" x="81.75" y="50.4" width="1.23" height="2.38" transform="translate(1.68 105.76) rotate(-65.94)"/><rect class="cls-2" x="79.25" y="51.32" width="3.37" height="0.65" transform="translate(161.73 103.54) rotate(-179.83)"/><path class="cls-2" d="M77.64,49.19l-.44,4.63L64,55.9l-.29-.74.93-1.53.07-.11,0-.13-.45-4.19H77.64m.44-.39H63.75l.5,4.63-1,1.69.48,1.22,13.87-2.18.51-5.36Z"/><path class="cls-2" d="M63.55,55.11a.43.43,0,1,1,0,.85.43.43,0,0,1-.42-.43.42.42,0,0,1,.42-.42m0-.4a.83.83,0,0,0-.83.82.82.82,0,0,0,1.64,0,.82.82,0,0,0-.81-.82Z"/><polygon class="cls-1" points="154.16 107.17 149.04 108.89 131.01 108.83 124.42 110.66 125.99 99.28 140.33 92.51 150.43 96.36 154.17 105.32 154.16 107.17"/><polygon class="cls-1" points="69.63 110.01 63.16 108.2 45.65 105.81 39.22 107.21 41.52 99.44 49.25 94.65 60.17 94.99 65.53 99 67.85 105.81 69.63 110.01"/><path class="cls-2" d="M153.88,108.63l2.47.22,2.2-3.94-.09-5.48,0-8.38L123,84.74,102.89,70.68l-26.95-1L58.73,71.37l-22,16.2-2.33,7.88v4l1.19,5.37,1.52,2.7,4.18.73s.6-12.48,12.87-12.07c14.13.47,12.46,15.41,15,15.42l55.32.16c1.32,0,1.45-16.62,15.86-16.58C153.51,95.17,153.88,108.63,153.88,108.63Z"/><circle class="cls-1" cx="140.28" cy="109.33" r="10.18"/><circle class="cls-4" cx="140.28" cy="109.33" r="5.9"/><circle class="cls-4" cx="140.28" cy="109.33" r="1.2"/><circle class="cls-1" cx="54.42" cy="109.08" r="10.18"/><circle class="cls-4" cx="54.42" cy="109.08" r="5.9"/><polygon class="cls-1" points="79.87 84.91 114.15 85.01 102.17 73.62 79.11 72.77 79.87 84.91"/><polygon class="cls-1" points="76.07 72.9 60.95 73.81 53.18 81.2 56.83 84.04 75.84 84.32 76.07 72.9"/><rect class="cls-6" x="152.47" y="90.82" width="2.92" height="5.22" transform="translate(60.05 247.08) rotate(-89.83)"/><rect class="cls-6" x="36.51" y="94.93" width="2.34" height="4.5" transform="matrix(0, -1, 1, 0, -59.61, 134.57)"/><rect class="cls-4" x="79.47" y="88.58" width="5.48" height="1.68" transform="translate(164.15 179.07) rotate(-179.83)"/><polygon class="cls-1" points="157.69 103.93 165.41 103.95 165.42 99.4 156.13 99.37 157.69 103.93"/><polygon class="cls-1" points="36.03 103.57 29.29 103.55 29.3 99 37.62 99.02 36.03 103.57"/><polygon class="cls-6" points="36.53 87.13 38.21 86.85 39.28 87.45 36.74 95.11 34.35 95.45 33.61 94.6 36.53 87.13"/><polygon class="cls-1" points="104.2 71.59 122.95 84.74 117.98 84.85 104.2 71.59"/><polygon class="cls-2" points="112.59 59.7 107.09 62.05 90.75 62.03 52.49 61.99 45.23 59.63 53.08 60.81 106.59 60.87 112.59 59.7"/><polygon class="cls-2" points="92.4 59.68 90.47 56.63 86.22 56.63 84.29 59.67 84.25 61.47 92.35 62.03 92.4 59.68"/><polygon class="cls-2" points="75.13 59.66 73.2 56.61 68.95 56.61 67.02 59.65 66.98 61.45 75.08 62.02 75.13 59.66"/><polygon class="cls-2" points="49.09 64.34 54.59 61.99 70.93 62.01 109.2 62.05 116.45 64.41 108.61 63.23 55.1 63.17 49.09 64.34"/><polygon class="cls-2" points="69.29 64.36 71.21 67.41 75.47 67.42 77.39 64.37 77.43 62.57 69.34 62.01 69.29 64.36"/><polygon class="cls-2" points="86.56 64.38 88.49 67.43 92.74 67.44 94.66 64.39 94.7 62.59 86.61 62.03 86.56 64.38"/><polygon class="cls-1" points="99.73 71.72 97.81 63.24 95.79 63.2 93.49 71.61 99.73 71.72"/><polygon class="cls-1" points="95.83 59.45 97.85 59.44 97.79 63.31 95.78 63.33 95.83 59.45"/><polygon class="cls-1" points="67.48 71.57 64.3 63.47 62.3 63.73 61.29 72.39 67.48 71.57"/><polygon class="cls-1" points="62.32 59.36 64.34 59.33 64.31 63.91 62.3 63.95 62.32 59.36"/><circle class="cls-4" cx="54.42" cy="109.08" r="5.9"/><path class="cls-1" d="M69.14,111.55l55.32.16c.36,0,.63-1.22,1.12-3l-58.09-.25C68,110.27,68.4,111.55,69.14,111.55Z"/></svg>