<svg id="Layer_1" data-name="Layer 1" xmlns="http://www.w3.org/2000/svg" viewBox="0 0 612 119"><defs><style>.cls-1{fill:none;stroke:#fff;stroke-width:0.5px;stroke-dasharray:2 2;}.cls-2{fill:#f6d41a;}.cls-3{fill:#2d1347;}.cls-4{fill:#bfe6ed;}.cls-5{fill:#2d1047;}.cls-6{fill:#fff;}.cls-7{fill:#e92829;}</style></defs><title>Doof Web Art v110</title><line id="line" class="cls-1" x1="95.59" y1="29.19" x2="506.85" y2="28.19"/><polygon class="cls-2" points="523.55 28.06 532.88 18.08 530.45 31.52 543.86 28.93 534 38.38 546.37 44.17 532.83 46.01 539.44 57.97 527.41 51.5 525.73 65.06 519.79 52.76 510.46 62.74 512.89 49.29 499.48 51.88 509.34 42.44 496.97 36.65 510.51 34.8 503.9 22.85 515.93 29.31 517.61 15.76 523.55 28.06"/><path class="cls-3" d="M510.88,41.56l1.61-.83a2,2,0,0,1,2.92,1l1.82,3.56a2,2,0,0,1-.93,3.11l-1.52.77Zm4.46,6,.51-.26c.6-.31.69-.73.35-1.38l-1.88-3.66c-.31-.6-.68-.83-1.32-.5l-.5.25Z"/><path class="cls-3" d="M516.12,41.13a2.05,2.05,0,1,1,3.65-1.87l2.06,4a2.05,2.05,0,1,1-3.65,1.87Zm3.15,3.45a.83.83,0,1,0,1.48-.75l-2.06-4a.83.83,0,1,0-1.48.76Z"/><path class="cls-3" d="M520.51,38.88A2.05,2.05,0,1,1,524.16,37l2.06,4a2.05,2.05,0,1,1-3.65,1.87Zm3.15,3.45a.83.83,0,1,0,1.47-.76l-2.06-4a.83.83,0,1,0-1.47.76Z"/><path class="cls-3" d="M524,34.8l3.25-1.67.52,1-2.15,1.1,1.18,2.31,1.88-1,.52,1-1.87,1L529,41.84l-1.09.56Z"/><path class="cls-3" d="M527.92,32.81l1.36-.7L531.8,38l-.53.27Zm3.48,6.44,1.09-.56.55,1.08-1.08.56Z"/><g id="garage"><rect class="cls-3" x="525.12" y="44.9" width="86.88" height="4.46"/><polygon class="cls-4" points="612 0 525.12 44.9 612 44.9 612 0"/><polygon class="cls-4" points="531.69 49.36 531.69 58.19 533.48 58.19 533.48 119.27 612 119.27 612 49.36 531.69 49.36"/></g><g id="car"><path class="cls-3" d="M86.73,50.1a11.91,11.91,0,1,0,12-11.88A11.91,11.91,0,0,0,86.73,50.1Zm3.12,0a8.79,8.79,0,1,1,8.76,8.81A8.8,8.8,0,0,1,89.85,50.11Z"/><path class="cls-3" d="M51.74,50A11.92,11.92,0,1,0,63.69,38.11,11.92,11.92,0,0,0,51.74,50Zm3.12,0a8.79,8.79,0,1,1,8.77,8.82A8.8,8.8,0,0,1,54.86,50Z"/><path class="cls-4" d="M101.06,50.14a2.41,2.41,0,0,0-2.41-2.43,2.44,2.44,0,0,0-.77.13l-2.33-6.78-.3.1-1.58-4.61-1.3-1.37-1.81-4.44,2.14-.81s.15.18.49.67.61.41.75.18-.77-2-.77-2l-1,.09-.67.54-1.93.72L89,31l1.17,1.56h0L74,38.56l-.31-.9-.33.11-2.39-7-.6.21,2.39,7-.33.11.36,1.06-9.15,8.46a2.4,2.4,0,0,0-2.12,3.45l-.12.25,1.39,1.29.85.33-.26,1.53-.54.9v0a.82.82,0,0,0-.14.44.81.81,0,0,0,.81.81.7.7,0,0,0,.14,0v0l13.81-2.17h0a2.73,2.73,0,0,0,.5,0,2.65,2.65,0,0,0,2.6-2.22h1l1.47.66.5-1.12-2.17-1-.35.78h-.46a2.67,2.67,0,0,0-.75-1.72l8.07-11.69,1.92-2.79,3.38,3.2,1,2.91-.3.1,2.57,7.5a2.46,2.46,0,0,0-.21,1,2.42,2.42,0,0,0,4.84,0ZM88.35,34.54,78.26,49.15c-.11,0-.22,0-.34,0h-.35l-3.22-9.39Zm-12,15.11a2.77,2.77,0,0,0-1,1.57L66.07,50a2.94,2.94,0,0,0,0-.51H76.3ZM64.28,55.82a.81.81,0,0,0-.47-.73l.93-1.51-.21-1.3a2.43,2.43,0,0,0,1.39-1.42l9.37,1.22a2.68,2.68,0,0,0,1.38,2.09l-12.46,2A.82.82,0,0,0,64.28,55.82Zm11.89-6.7H65.9a2.46,2.46,0,0,0-1.27-1.31L73.05,40Z"/><polygon class="cls-5" points="153.49 93.31 43.85 91.72 39.23 107.26 45.64 105.87 63.06 108.25 69.51 110.06 124.05 110.71 130.62 108.89 148.56 108.94 153.67 107.23 153.49 93.31"/><path class="cls-4" d="M153.39,108.69l2.45.21L158,105l-.1-5.45.06-8.34L122.59,84.9l-20-14-26.84-1L58.66,71.58l-22,16.13-2.31,7.85v3.93l1.18,5.34,1.52,2.69,4.15.74s.6-12.43,12.82-12c14.07.47,12.4,15.35,15,15.36l55.08.16c1.31,0,1.44-16.55,15.78-16.5C153,95.28,153.39,108.69,153.39,108.69Z"/><circle class="cls-3" cx="139.84" cy="109.39" r="10.13"/><circle class="cls-6" cx="139.84" cy="109.39" r="5.87"/><circle class="cls-6" cx="139.84" cy="109.39" r="1.2"/><circle class="cls-3" cx="54.37" cy="109.13" r="10.13"/><circle class="cls-6" cx="54.37" cy="109.13" r="5.87"/><polygon class="cls-3" points="79.71 85.07 113.83 85.17 101.91 73.83 78.94 72.98 79.71 85.07"/><polygon class="cls-3" points="75.92 73.11 60.87 74.01 53.13 81.37 56.77 84.2 75.69 84.48 75.92 73.11"/><rect class="cls-7" x="151.98" y="90.95" width="2.9" height="5.19" transform="translate(59.42 246.7) rotate(-89.83)"/><rect class="cls-7" x="36.53" y="95.04" width="2.33" height="4.48" transform="translate(-59.69 134.69) rotate(-89.83)"/><rect class="cls-6" x="79.3" y="88.72" width="5.46" height="1.67" transform="translate(163.79 179.35) rotate(-179.83)"/><polygon class="cls-3" points="157.18 104.01 164.86 104.03 164.88 99.49 155.62 99.47 157.18 104.01"/><polygon class="cls-3" points="36.06 103.64 28.38 103.62 28.39 99.09 37.64 99.11 36.06 103.64"/><polygon class="cls-7" points="36.56 87.27 38.23 86.99 39.29 87.59 36.76 95.22 34.39 95.56 33.65 94.71 36.56 87.27"/><polygon class="cls-3" points="103.92 71.81 122.59 84.9 117.64 85.01 103.92 71.81"/><path class="cls-4" d="M116.13,64.66l-7.23-2.35h-2.09L112.28,60l-6,1.17-14.16,0,0-1.17-1.92-3H86l-1.92,3,0,1.17H75l0-1.17-1.91-3H68.83l-1.92,3,0,1.17H53l-7.82-1.19,7.23,2.36h2.09l-5.47,2.34,6-1.17,14.16,0,0,1.17,1.92,3h4.23l1.92-3,0-1.17h9.13l0,1.17,1.91,3h4.24l1.91-3,0-1.17h13.85Z"/><polygon class="cls-3" points="99.48 71.94 97.56 63.49 97.55 63.49 97.6 59.71 95.6 59.72 95.54 63.52 93.27 71.83 99.48 71.94"/><polygon class="cls-3" points="67.37 71.78 64.22 63.76 64.24 59.6 62.24 59.63 62.21 63.99 61.21 72.6 67.37 71.78"/><circle class="cls-6" cx="54.37" cy="109.13" r="5.87"/><path class="cls-3" d="M69,111.59l55.08.16c.35,0,.62-1.22,1.11-3l-57.83-.26C67.89,110.32,68.28,111.58,69,111.59Z"/><polygon class="cls-3" points="75.35 29.82 69.92 31.31 66.44 29.82 66.79 29.03 74.38 29.43 75.35 29.82"/></g></svg>