<svg id="Layer_1" data-name="Layer 1" xmlns="http://www.w3.org/2000/svg" viewBox="0 0 612 284.93"><defs><style>.cls-1{fill:#94d7e7;}</style></defs><path class="cls-1" d="M21.45,113.54a15,15,0,0,1,7.47,2,17.17,17.17,0,0,1,15.59-11.2c0-.74-.07-1.48-.07-2.22a35.3,35.3,0,0,1,70-5.94,24.69,24.69,0,0,1,35.46,18.64,14.71,14.71,0,0,1,4.67-.78A14.31,14.31,0,0,1,169,128.25H6.55A14.8,14.8,0,0,1,21.45,113.54Z"/><path class="cls-1" d="M578.46,155a14.88,14.88,0,0,0-4.88.83,25.59,25.59,0,0,0-43.33-15.48,17.9,17.9,0,0,0-25.16,16.36c0,.16,0,.32,0,.48A14.94,14.94,0,0,0,482.38,170h111A15,15,0,0,0,578.46,155Z"/></svg>