<svg id="Layer_1" data-name="Layer 1" xmlns="http://www.w3.org/2000/svg" viewBox="0 0 612 284.93"><defs><style>.cls-1{fill:#94d7e7;}</style></defs><path class="cls-1" d="M180.13,118.56a9.88,9.88,0,0,1,4.92,1.31,11.31,11.31,0,0,1,10.27-7.38c0-.49,0-1,0-1.47a23.26,23.26,0,0,1,46.12-3.91,16.36,16.36,0,0,1,7.26-1.7,16.18,16.18,0,0,1,16.11,14,9.74,9.74,0,0,1,3.07-.51,9.43,9.43,0,0,1,9.49,9.37h-107A9.75,9.75,0,0,1,180.13,118.56Z"/><path class="cls-1" d="M584,160.57a9.4,9.4,0,0,0-3.06.52,16,16,0,0,0-27.16-9.71,11.21,11.21,0,0,0-15.77,10.26c0,.1,0,.2,0,.3a9.27,9.27,0,0,0-4.87-1.37,9.38,9.38,0,0,0-9.38,9.38h69.61A9.38,9.38,0,0,0,584,160.57Z"/></svg>