<svg xmlns="http://www.w3.org/2000/svg" viewBox="0 0 612 284.93"><defs><style>.a{fill:#94d7e7;}</style></defs><title>Doof Web Art v110</title><path class="a" d="M36.37,117.77a9.85,9.85,0,0,1,4.92,1.31,11.32,11.32,0,0,1,10.28-7.38c0-.49-.06-1-.06-1.47a23.26,23.26,0,0,1,46.13-3.91A16.28,16.28,0,0,1,121,118.6a9.8,9.8,0,0,1,3.08-.51,9.42,9.42,0,0,1,9.48,9.37h-107A9.75,9.75,0,0,1,36.37,117.77Z"/><path class="a" d="M556.67,141.67a9.4,9.4,0,0,0-3.06.52,16,16,0,0,0-27.16-9.7,11.22,11.22,0,0,0-15.78,10.25c0,.11,0,.21,0,.31a9.28,9.28,0,0,0-4.87-1.38,9.38,9.38,0,0,0-9.38,9.39h69.61A9.38,9.38,0,0,0,556.67,141.67Z"/></svg>