<svg xmlns="http://www.w3.org/2000/svg" viewBox="0 0 612 337"><defs><style>.a{fill:#35bad0;}.b{fill:#fff;}.c{fill:#2d1347;}.d{fill:#33bad1;}.e{fill:#bfe6ed;}.f{fill:#2d1047;}.g{fill:#e92829;}</style></defs><title>Doof Web Art v110</title><polyline class="a" points="74.86 100.61 96.52 98.33 111.58 95.45 115.71 94.83 125.98 89.32 144.69 61.26 152.07 57.32 165 54.82 188.41 24.01 196.24 19.25 200.26 20.79 205.21 20.17 216.04 26.05 227.79 25.74 232.47 24.04 271.41 18.93 296.16 22.96 303.27 26.67 330.18 32.86 349.08 37.61 363.28 45.23 378.24 44.21 409.68 44.61 440.93 51.42 459.18 46.47 473.71 54.2 477.12 53.89 498.77 58.53 518.88 65.95 533.73 57.91 551.36 54.51 612 65.21 612 160.13 97.96 155.27 74.86 100.61"/><polygon class="b" points="303.27 26.67 312.64 47.88 315.87 47.44 348.16 54.78 365.05 52.87 383.83 58.45 392.35 56.69 390.15 41.86 363.28 45.23 349.08 37.61 330.18 32.86 303.27 26.67"/><polygon class="b" points="196.25 26.73 200.42 31.69 208.1 29.05 215.79 33.86 219.99 34.96 224.16 38.49 225.93 38.65 225.12 35.44 229.94 34.48 245.81 36.56 261.69 35.92 272.28 37.53 274.64 36.51 267.47 32.71 264.42 33.52 259.93 29.99 247.58 30.47 243.89 25.66 232.47 24.04 227.79 25.74 216.04 26.05 205.21 20.17 200.26 20.79 196.24 19.25 188.41 24.01 196.25 26.73"/><polygon class="b" points="242.31 49.28 244.68 54.08 249.4 55.84 247.72 62.31 255.42 66.43 263.5 66.58 274.17 64.52 275.93 63.65 275.01 60.35 269.37 56.9 262.58 58.43 259 52.18 250.93 48.82 242.31 49.28"/><polygon class="b" points="115.71 94.83 125.98 89.32 131.9 89.24 132.14 91.1 134.85 92.46 131.24 99.91 137.97 101.11 139.17 104.23 143.31 111.13 151 116.72 160.55 118.12 163.58 116.02 166.37 117.65 170.4 111.92 177.55 116.49 180.81 116.95 182.64 114.56 191.29 120.68 195.48 133.02 188.5 132.56 186.4 144.9 165.91 151.65 110.71 113.46 74.86 100.61 96.52 98.33 115.71 94.83"/><polygon class="b" points="440.93 51.42 458.61 61.94 469.38 71.47 480.36 72.08 490.06 74.89 491.1 73.75 479.1 64.8 475 64.8 471.29 57.08 468.62 59.37 464.14 54.98 462.24 55.27 459.57 51.55 455.06 49.83 459.18 46.47 440.93 51.42"/><polygon class="b" points="477.12 53.89 480.82 58.1 490.48 59.72 493.24 65 505.43 66.84 522.07 76.04 536.46 66.61 556.56 63.08 560.94 60.98 573.04 61.27 572.75 64.61 570.37 69.66 573.71 71.94 581.81 65.75 585.33 60.41 551.36 54.51 533.73 57.91 518.88 65.95 498.77 58.53 477.12 53.89"/><polygon class="c" points="145.66 76.61 163.67 63.4 194.17 27.61 188.41 24.01 176.4 33.38 174.24 37.22 171.35 37.22 165.59 47.79 161.03 44.66 157.91 46.11 152.07 57.32 144.69 61.26 125.98 89.32 142.05 81.17 145.66 76.61"/><polygon class="c" points="178.32 101.11 169.43 95.83 161.27 71.09 145.41 82.61 149.02 86.7 134.85 92.46 131.24 99.91 137.97 101.11 139.17 104.23 143.73 103.03 144.93 108.56 149.5 112.16 163.67 108.56 162.71 114.08 170.4 111.92 172.8 107.11 176.4 110 177.84 115.28 182.65 114.56 191.53 100.63 184.09 96.79 178.32 101.11"/><polygon class="c" points="224.2 51.15 215.79 33.86 208.1 29.05 200.42 31.69 192.97 41.06 195.85 44.18 167.99 66.52 168.23 79.49 171.12 91.98 180.48 94.38 192.25 95.83 201.62 83.58 224.2 51.15"/><polygon class="c" points="264.56 88.22 268.78 77.95 259.43 72.81 243.29 76.11 242.01 68.05 240.91 63.46 234.13 48.25 232.11 41.65 226.97 39.26 223.12 44.58 225.51 47.7 230.46 47.33 222.02 59.25 222.21 63.65 230.64 58.15 233.21 64.93 221.84 73.55 224.41 80.33 217.99 81.61 216.52 88.4 207.72 81.43 199.47 92.43 201.31 103.07 210.66 117.55 217.26 117.73 222.02 112.97 228.26 109.85 223.49 117.92 236.14 115.9 242.93 108.93 251.54 101.05 264.56 88.22"/><polygon class="c" points="310.4 38.71 308.93 31.56 299.21 21.66 282.35 11.76 277.58 5.53 271.89 2.96 265.66 4.79 262.91 10.66 259.06 11.21 256.86 10.66 252.83 11.39 247.14 15.98 240.18 17.44 232.47 24.04 243.66 22.39 250.26 26.06 263.46 23.86 266.21 26.43 276.29 31.93 274.64 36.51 264.19 41.09 272.63 55.21 278.13 52.28 278.86 53.93 275.01 60.35 275.93 63.65 287.66 51.91 278.68 66.76 277.39 77.95 274.09 74.83 269.51 81.61 271.34 86.56 262.36 94.45 248.61 107.28 249.89 116.63 257.23 112.05 267.13 105.27 273.36 99.4 276.84 103.62 284.73 99.58 285.83 92.43 286.93 81.8 290.6 73 294.08 63.65 293.71 84.92 297.56 79.6 299.03 68.05 301.78 66.76 306.36 71.9 317.18 60.53 317.36 54.11 327.63 54.66 317.55 47.7 310.4 38.71"/><polygon class="c" points="334.42 53.01 345.6 61.63 354.22 65.11 362.28 63.65 353.85 55.76 366.87 53.56 363.93 40.55 349.08 37.61 338.45 39.08 332.58 31.75 326.17 29.36 316.08 28.26 310.58 30.83 313.51 37.43 314.06 40.55 317.73 43.48 333.87 47.33 345.6 52.65 345.23 54.66 334.42 53.01"/><polygon class="c" points="474.13 69.15 467.52 66.95 461.84 61.08 458.91 57.96 449.19 51 435.44 45.5 420.95 46.05 409.59 38.9 402.07 40.55 389.6 36.15 378.24 44.21 385.75 45.68 388.13 56.86 378.05 57.41 368.88 63.1 358.8 67.5 358.98 72.45 353.85 73.91 345.42 81.25 367.23 72.81 378.24 71.16 362.83 86.75 358.98 90.42 363.2 94.82 350.37 104.72 353.3 109.48 371.27 101.42 384.47 92.8 411.42 79.6 409.95 84.92 420.04 76.66 436.17 74.65 453.04 64.38 459.46 68.78 437.09 78.13 446.99 80.7 427.92 88.58 422.79 83.45 413.99 90.6 418.57 91.88 434.34 93.17 446.44 89.86 467.34 84.73 480.54 76.3 480.36 72.08 474.13 69.15"/><polygon class="c" points="493.24 65 490.48 59.72 480.82 58.1 474.84 50.05 471.85 51.2 467.94 46.38 463.11 43.38 455.06 49.83 461.96 50.52 465.87 53.97 471.85 56.49 476.45 62.24 486.8 67.77 493.47 71.22 505.43 66.84 493.24 65"/><polygon class="c" points="146.23 117.43 147.11 120.21 150.65 119.45 151.66 121.72 157.73 123.62 161.14 121.85 142.94 114.27 134.09 110.73 132.2 112.75 143.7 117.55 146.23 117.43"/><polygon class="c" points="150.57 127.01 144.79 127.01 141.7 124.53 139.43 120.61 130.97 115.87 119.63 109.68 117.56 106.59 121.28 104.32 117.56 98.75 115.71 94.83 111.79 99.99 107.45 105.97 112.2 109.06 101.27 106.38 94.87 103.08 89.09 102.25 81.25 101.64 74.86 100.61 64.55 103.91 52.99 106.58 43.84 105.6 31.74 105.28 23.08 104.73 14 107 0 110.24 4.72 121.23 19.37 122.06 30.09 130.52 40.82 134.02 69.01 168.05 146.82 163.8 170.17 152.38 160.26 134.64 150.57 127.01"/><polygon class="b" points="441.85 60.48 432.12 64.31 427.55 69.03 422.68 71.69 418.11 70.66 425.19 66.67 413.24 55.91 408.81 60.19 404.1 59.89 398.93 62.69 393.62 64.61 404.83 53.7 419.73 55.32 421.65 59.89 427.25 62.55 432.41 61.07 438.46 56.79 443.48 53.99 445.54 58.12 441.85 60.48"/><polygon class="b" points="381.82 69.48 386.54 68.44 390.08 65.79 384.77 66.67 381.82 69.48"/><polygon class="b" points="375.23 74.31 371.56 74.79 358.97 80.37 345.42 81.25 345.42 75.42 333.94 77.97 335.22 72.24 324.38 78.61 312.27 83.23 289.79 100.29 284.73 99.58 276.84 103.62 275.77 113.36 266.2 118.78 252.34 118.94 249.89 116.63 238.95 123.24 239.42 127.23 252.18 122.92 257.75 126.27 268.75 123.56 279.59 122.76 299.36 114.16 300.95 118.94 319.6 117.34 328.37 112.08 319.44 110.97 331.55 102.68 335.38 95.35 358.98 90.42 375.23 74.31"/><polygon class="c" points="0 110.24 3.21 109.13 -2.58 103.78 2.99 100.43 -2.14 96.86 2.54 94.86 7.9 97.09 10.13 95.3 -2.81 91.96 5 86.83 11.91 85.27 -3.7 81.7 1.21 77.69 5.89 71.89 2.99 71.22 11.69 66.54 -0.13 66.54 11.24 58.29 4.11 57.4 0.09 57.62 2.54 54.73 9.23 55.39 11.24 52.27 15.48 44.69 17.93 54.06 20.61 57.18 16.59 59.85 25.96 66.99 22.39 68.99 28.85 73.68 24.62 73.9 30.64 78.14 20.83 76.13 28.63 83.49 21.05 84.6 31.75 89.06 21.05 88.84 28.85 96.64 18.82 93.07 23.06 98.2 20.16 101.1 16.81 103.78 22.39 108.24 21.05 113.14 25.73 116.04 36.88 109.13 37.1 82.37 32.42 82.37 37.1 79.92 36.88 74.79 33.09 75.01 29.52 71.67 36.21 72.34 36.66 65.65 29.3 63.2 36.88 63.42 29.75 57.62 37.77 59.41 31.98 53.61 37.1 55.62 33.31 48.7 37.33 50.49 34.87 44.25 37.77 38.45 40.45 46.03 38.89 50.04 39.33 53.16 43.12 55.84 40.23 58.74 44.24 59.63 40.89 62.75 45.8 62.31 48.7 60.74 41.34 66.1 46.69 66.99 41.34 69.66 41.34 74.57 44.91 75.68 40 78.36 40.67 85.27 44.24 87.28 40.67 90.84 41.34 109.35 47.58 107.34 48.03 71.89 48.92 75.46 49.59 107.12 53.16 107.12 54.94 93.74 52.27 90.84 56.06 88.84 54.05 83.93 55.39 79.03 53.16 74.79 56.06 65.87 57.17 74.79 61.85 77.24 56.5 77.69 58.06 82.59 58.06 86.61 63.41 89.95 58.51 90.62 61.63 96.2 58.51 97.98 63.86 103.11 58.51 101.55 58.51 106.67 58.28 116.26 67.87 121.39 71.44 120.05 71.44 111.36 65.64 109.13 69.21 106.23 67.87 103.55 68.32 99.09 66.53 95.08 70.99 89.95 67.65 86.83 73.67 85.05 68.99 82.59 73.89 82.15 71.44 78.58 73.89 71.45 75.23 79.7 79.24 81.03 75.9 83.26 79.91 85.94 75.9 89.73 79.91 91.07 75.45 93.3 84.15 93.07 76.57 98.42 84.37 100.21 74.56 102.44 84.37 103.11 76.34 106.23 79.91 108.46 76.79 109.57 76.57 117.15 76.79 122.28 82.36 132.76 85.93 138.34 90.84 131.87 93.96 140.79 96.41 139.23 97.97 143.24 102.66 146.81 104.22 151.71 114.03 150.15 123.61 146.59 129.63 148.37 141.23 142.13 147.02 146.14 150.81 124.07 154.16 144.58 157.95 137 161.74 141.68 170.66 139.45 174.45 134.1 175.56 137.44 182.7 132.54 187.16 134.32 191.39 131.42 199.87 132.32 202.32 112.92 205.66 131.87 209.01 137 212.8 135.66 213.69 128.08 212.57 125.18 216.59 122.06 215.47 118.94 217.7 112.92 220.38 119.16 219.49 122.73 221.94 125.4 219.04 126.52 222.83 129.42 224.39 134.77 224.17 137.67 230.41 142.79 236.43 133.65 238.88 119.38 242.68 115.15 247.58 123.84 252.26 122.73 256.94 123.84 260.51 120.5 262.74 124.07 266.31 131.2 275 113.14 278.57 120.5 282.14 126.74 285.93 116.48 288.38 134.32 290.39 121.39 293.96 118.05 297.3 114.7 298.42 106.01 303.1 116.48 305.55 114.7 309.12 120.94 311.35 116.04 316.7 134.99 320.71 111.8 323.61 116.26 328.74 104 332.53 121.39 335.2 124.73 338.33 120.5 342.56 114.03 345.68 98.65 353.26 96.86 352.82 93.07 341.22 95.97 338.55 94.19 352.82 88.84 352.82 86.39 341.89 88.39 334.54 87.05 350.59 81.7 351.26 76.58 343.45 76.8 340.78 71.89 336.54 65.87 347.69 71.89 351.7 69.89 348.36 67.43 343.23 62.53 350.81 64.53 352.37 53.61 354.6 64.76 363.97 65.43 355.49 67.88 364.63 71.45 355.72 72.12 357.5 75.46 366.87 75.68 367.76 78.36 357.72 80.14 367.76 83.93 355.72 83.93 356.39 90.62 367.31 93.3 357.28 94.64 357.5 97.76 366.87 101.55 373.78 106.9 380.69 95.97 385.37 107.57 389.38 106.67 392.95 112.69 402.76 112.47 406.11 108.46 400.75 107.12 404.77 86.16 409 104.22 411.01 106.45 411.01 110.02 416.36 105.56 418.81 84.38 424.83 108.68 428.85 101.55 432.42 105.78 440.67 99.54 446.02 101.77 451.37 97.98 457.83 98.2 460.29 80.14 464.97 96.2 472.33 104 475.45 103.33 481.24 94.86 481.02 91.07 476.12 91.29 480.13 86.39 479.24 81.48 480.58 76.13 482.58 71.45 485.93 80.36 483.47 84.16 486.6 90.62 489.72 96.2 491.06 102.89 495.29 92.41 499.75 98.2 503.32 89.73 508 91.96 512.01 71.22 508.89 62.75 511.12 58.29 510.68 53.39 513.35 50.04 512.9 46.92 518.48 42.24 516.47 40.01 519.37 33.99 522.05 41.79 524.28 49.6 525.61 59.85 527.84 51.16 530.74 70.56 535.87 80.14 539.66 96.2 545.24 99.54 547.69 96.2 555.04 84.83 556.16 67.21 551.48 60.52 558.17 59.85 556.38 52.72 560.4 44.02 560.84 38.23 564.86 48.26 566.19 57.18 568.42 60.97 571.77 48.93 576.45 60.52 578.68 73.68 581.35 81.93 589.38 77.47 589.83 63.2 586.93 60.08 589.38 53.83 584.25 53.16 584.25 49.82 589.83 47.59 586.93 44.02 588.93 38.67 590.27 32.88 592.28 23.73 594.06 19.5 598.97 22.62 599.64 34.44 603.43 51.16 601.2 56.73 603.87 63.87 612 78.7 612 197.4 0 337 0 110.24"/><path class="d" d="M145.84,232.93a11.91,11.91,0,1,0,9-14.27A11.91,11.91,0,0,0,145.84,232.93Zm3-.7a8.79,8.79,0,1,1,10.53,6.61A8.8,8.8,0,0,1,148.88,232.23Z"/><path class="d" d="M111.73,240.71a11.91,11.91,0,1,0,9-14.26A11.92,11.92,0,0,0,111.73,240.71Zm3-.69a8.79,8.79,0,1,1,10.53,6.61A8.79,8.79,0,0,1,114.77,240Z"/><path class="e" d="M159.81,229.73a2.42,2.42,0,0,0-2.9-1.82,2.37,2.37,0,0,0-.71.3l-3.8-6.08-.27.17-2.58-4.13-1.58-1-2.77-3.92,1.91-1.27s.19.15.63.54.69.27.76,0-1.2-1.81-1.2-1.81l-1,.31-.54.69-1.71,1.13-.29,1,1.5,1.26h0l-14.49,9.55-.5-.81L130,224l-3.9-6.26-.55.34,3.91,6.25-.29.19.59.94-7,10.31A2.42,2.42,0,0,0,121,238.6a2.53,2.53,0,0,0,.47,1l-.06.27,1.64.95.91.12.09,1.55-.33,1h0a.79.79,0,0,0,0,.46.81.81,0,0,0,1,.61.52.52,0,0,0,.13-.06v0l13-5.23h0l.49-.06a2.67,2.67,0,0,0,2-2.76l1-.23,1.58.31.23-1.2-2.33-.45-.16.83-.45.1a2.73,2.73,0,0,0-1.12-1.5l5.22-13.21,1.25-3.15,4,2.36,1.63,2.6-.27.17,4.2,6.73a2.42,2.42,0,1,0,4.73-.08Zm-15.9-12.33-6.53,16.51a1.86,1.86,0,0,0-.34.05h0l-.34.08-5.26-8.42Zm-8.28,17.43a2.65,2.65,0,0,0-.64,1.76l-9.29.92a2.48,2.48,0,0,0-.17-.48l10-2.33Zm-10.37,8.74a.82.82,0,0,0-.63-.61l.57-1.68-.49-1.22a2.43,2.43,0,0,0,1-1.69l9.41-.93a2.7,2.7,0,0,0,1.81,1.73l-11.7,4.71A.81.81,0,0,0,125.26,243.57Zm10.07-9.22-10,2.32a2.4,2.4,0,0,0-1.52-1l6.44-9.49Z"/><polygon class="f" points="220.62 259.97 113.45 283.14 112.46 299.33 118.39 296.53 135.9 294.92 142.58 295.22 195.87 283.56 201.86 280.3 219.35 276.31 223.94 273.49 220.62 259.97"/><path class="e" d="M224,275l2.45-.34,1.25-4.32L226.37,265l-1.83-8.14-35.91,1.86L166,249.61l-26.38,5-16.3,5.54-17.75,20.67L105.1,289l.88,3.83,2.35,4.94,2.09,2.28,4.21-.22s-2.22-12.25,9.78-14.6c13.81-2.72,15.54,12.15,18.05,11.57l53.69-12.26c1.28-.29-2.32-16.44,11.66-19.64C220.61,262,224,275,224,275Z"/><circle class="d" cx="210.96" cy="278.71" r="10.13"/><circle class="b" cx="210.96" cy="278.71" r="5.87"/><path class="f" d="M215.72,282.17a6.19,6.19,0,0,0,.42-4.38,5.72,5.72,0,0,0-2.58-3.39,5.83,5.83,0,0,0-4.19-.72,6.18,6.18,0,0,0-3.69,2.4,5.65,5.65,0,0,1,3.56-2.92,5.93,5.93,0,0,1,4.68.65,6.05,6.05,0,0,1,2.74,3.85A5.67,5.67,0,0,1,215.72,282.17Z"/><circle class="b" cx="210.96" cy="278.71" r="1.2"/><circle class="d" cx="127.63" cy="297.74" r="10.13"/><circle class="b" cx="127.63" cy="297.74" r="5.87"/><polygon class="d" points="146.89 268.58 180.15 260.98 165.98 252.62 143.42 256.97 146.89 268.58"/><polygon class="d" points="140.5 257.78 126.03 262.06 120.16 270.97 124.34 272.91 142.84 268.91 140.5 257.78"/><rect class="g" x="218.03" y="258.76" width="5.19" height="2.9" transform="translate(-52.39 55.65) rotate(-12.86)"/><rect class="g" x="106.47" y="288.78" width="4.48" height="2.33" transform="translate(-61.82 31.48) rotate(-12.86)"/><rect class="b" x="147.43" y="271.59" width="5.46" height="1.67" transform="translate(357.2 504.58) rotate(167.14)"/><polygon class="d" points="226.63 269.56 234.13 267.85 233.12 263.43 224.09 265.49 226.63 269.56"/><polygon class="d" points="108.56 296.52 101.06 298.23 100.05 293.81 109.08 291.75 108.56 296.52"/><polygon class="g" points="105.35 280.46 106.91 279.81 108.08 280.15 107.34 288.16 105.1 289.02 104.19 288.37 105.35 280.46"/><polygon class="d" points="167.49 250.2 188.63 258.74 183.83 259.97 167.49 250.2"/><path class="e" d="M177.77,240.49l-7.57-.67-2,.47,4.8-3.51-5.56,2.49-13.79,3.17-.24-1.15-2.55-2.52-4.13.95-1.18,3.39.24,1.14-8.9,2.05-.24-1.15-2.55-2.52-4.12,1L128.75,247l.24,1.15-13.5,3.11-7.88.61,7.57.67,2-.47-4.81,3.51,5.57-2.49,13.79-3.17L132,251l2.55,2.52,4.12-1,1.19-3.38-.24-1.15,8.89-2,.24,1.15,2.56,2.52,4.12-.95,1.19-3.38-.24-1.15,13.5-3.11Z"/><polygon class="d" points="163.19 251.33 159.42 243.53 159.4 243.54 158.6 239.84 156.65 240.3 157.45 244.02 157.11 252.62 163.19 251.33"/><polygon class="d" points="131.87 258.42 126.99 251.32 126.07 247.26 124.13 247.74 125.09 251.99 126.05 260.61 131.87 258.42"/><circle class="b" cx="127.63" cy="297.74" r="5.87"/><path class="f" d="M132.39,301.2a6.19,6.19,0,0,0,.42-4.38,5.72,5.72,0,0,0-2.58-3.39,5.83,5.83,0,0,0-4.19-.72,6.18,6.18,0,0,0-3.69,2.4,5.65,5.65,0,0,1,3.56-2.92,5.93,5.93,0,0,1,4.68.65,6.05,6.05,0,0,1,2.74,3.85A5.64,5.64,0,0,1,132.39,301.2Z"/><path class="d" d="M142.46,296.82l53.69-12.26c.35-.08.33-1.32.41-3.16l-56.4,12.8C141.07,295.84,141.74,297,142.46,296.82Z"/><polygon class="d" points="130.18 215.74 125.23 218.41 121.5 217.75 121.66 216.9 129.15 215.58 130.18 215.74"/></svg>