<svg id="Layer_1" data-name="Layer 1" xmlns="http://www.w3.org/2000/svg" xmlns:xlink="http://www.w3.org/1999/xlink" viewBox="0 0 612 284.93"><defs><style>.cls-1,.cls-6,.cls-7{fill:none;}.cls-2{fill:#6ccbdb;}.cls-3{fill:#2d1347;}.cls-4{fill:#33bad1;}.cls-5{fill:#f6d41a;}.cls-6{stroke:#f6d41a;stroke-width:3.13px;}.cls-7{stroke:#2c1446;stroke-width:1.04px;}.cls-8{clip-path:url(#clip-path);}.cls-9{fill:#2c1446;}.cls-10{fill:#f5d41b;}</style><clipPath id="clip-path"><rect class="cls-1" x="254.11" y="189.46" width="2.61" height="58.71" transform="translate(474.22 -36.6) rotate(90)"/></clipPath></defs><polygon class="cls-2" points="387.62 215.02 387.62 284.93 399.12 284.93 399.12 223.86 523.81 223.86 523.81 284.93 535.31 284.93 535.31 215.02 387.62 215.02"/><rect class="cls-3" x="378.5" y="210.56" width="165.93" height="4.46"/><rect class="cls-2" x="378.5" y="165.67" width="165.93" height="44.9"/><rect class="cls-4" x="399.12" y="223.86" width="124.69" height="61.08"/><rect class="cls-3" x="460.35" y="273.65" width="2.24" height="6.27" transform="translate(738.25 -184.68) rotate(90)"/><rect class="cls-2" x="404.58" y="228.86" width="18.39" height="13.86"/><rect class="cls-2" x="428.43" y="228.86" width="18.39" height="13.86"/><rect class="cls-2" x="452.27" y="228.86" width="18.39" height="13.86"/><rect class="cls-2" x="476.12" y="228.86" width="18.39" height="13.86"/><rect class="cls-2" x="499.97" y="228.86" width="18.39" height="13.86"/><rect class="cls-2" x="578.85" y="206.4" width="4.02" height="78.53"/><rect class="cls-5" x="563.92" y="209.37" width="33.89" height="33.89" rx="1.83" transform="translate(10.1 477.02) rotate(-45)"/><rect class="cls-6" x="563.92" y="209.37" width="33.89" height="33.89" rx="1.83" transform="translate(10.1 477.02) rotate(-45)"/><rect class="cls-7" x="563.92" y="209.37" width="33.89" height="33.89" rx="1.83" transform="translate(10.1 477.02) rotate(-45)"/><path class="cls-3" d="M569.58,219.65H568.4v-1h3.38v1H570.6v6.15h-1Z"/><path class="cls-3" d="M575.73,224.2a1.65,1.65,0,1,1-3.3,0v-5.51h1v5.41c0,.5.27.74.63.74s.63-.24.63-.74v-5.41h1Z"/><path class="cls-3" d="M576.85,218.69h1l1.54,4.28h0v-4.28h1v7.11h-1l-1.56-4.28h0v4.28h-1Z"/><path class="cls-3" d="M581.49,218.69h1L584,223h0v-4.28h1v7.11h-1l-1.56-4.28h0v4.28h-1Z"/><path class="cls-3" d="M586.17,218.69h3v1h-2v2.08H589v1h-1.76v2.09h2v1h-3Z"/><path class="cls-3" d="M590.07,218.69h1v6.09h2v1h-3Z"/><path class="cls-3" d="M571.89,228.69h.85l1.59,7.11h-1l-.3-1.53h-1.39l-.3,1.53h-1Zm.43,2h0l-.5,2.58h1Z"/><path class="cls-3" d="M575,228.69h1v3h1.26v-3h1v7.11h-1v-3.17h-1.26v3.17h-1Z"/><path class="cls-3" d="M579.49,228.69h3v1h-2v2.08h1.76v1h-1.76v2.09h2v1h-3Z"/><path class="cls-3" d="M584.52,228.69h.85L587,235.8h-1l-.3-1.53h-1.39l-.3,1.53h-1Zm.43,2h0l-.5,2.58h1Z"/><path class="cls-3" d="M587.66,228.69h1.51a1.65,1.65,0,0,1,1.79,1.83v3.33a1.71,1.71,0,0,1-1.88,2h-1.42Zm1,6.15h.47c.57,0,.79-.28.79-.89v-3.43c0-.56-.19-.87-.79-.87h-.47Z"/><rect class="cls-2" x="213.81" y="194.06" width="3.82" height="90.87"/><rect class="cls-2" x="229.01" y="207.94" width="1.11" height="10.49"/><rect class="cls-2" x="281.22" y="207.94" width="1.11" height="10.49"/><g class="cls-8"><polygon class="cls-5" points="186.85 206.19 212.05 231.4 204.13 231.4 178.92 206.19 186.85 206.19"/><polygon class="cls-5" points="171 206.19 196.21 231.4 188.29 231.4 163.08 206.19 171 206.19"/><polygon class="cls-5" points="202.69 206.19 227.9 231.4 219.97 231.4 194.77 206.19 202.69 206.19"/><polygon class="cls-5" points="313.6 206.19 338.81 231.4 330.88 231.4 305.68 206.19 313.6 206.19"/><polygon class="cls-5" points="329.44 206.19 354.65 231.4 346.73 231.4 321.52 206.19 329.44 206.19"/><polygon class="cls-5" points="218.53 206.19 243.74 231.4 235.82 231.4 210.61 206.19 218.53 206.19"/><polygon class="cls-5" points="234.38 206.19 259.58 231.4 251.66 231.4 226.46 206.19 234.38 206.19"/><polygon class="cls-5" points="250.22 206.19 275.43 231.4 267.51 231.4 242.3 206.19 250.22 206.19"/><polygon class="cls-5" points="266.07 206.19 291.27 231.4 283.35 231.4 258.14 206.19 266.07 206.19"/><polygon class="cls-5" points="281.91 206.19 307.12 231.4 299.2 231.4 273.99 206.19 281.91 206.19"/><polygon class="cls-3" points="178.92 206.19 204.13 231.4 196.21 231.4 171 206.19 178.92 206.19"/><polygon class="cls-3" points="194.77 206.19 219.97 231.4 212.05 231.4 186.85 206.19 194.77 206.19"/><polygon class="cls-3" points="305.68 206.19 330.88 231.4 322.96 231.4 297.75 206.19 305.68 206.19"/><polygon class="cls-3" points="321.52 206.19 346.73 231.4 338.81 231.4 313.6 206.19 321.52 206.19"/><polygon class="cls-3" points="210.61 206.19 235.82 231.4 227.9 231.4 202.69 206.19 210.61 206.19"/><polygon class="cls-3" points="226.46 206.19 251.66 231.4 243.74 231.4 218.53 206.19 226.46 206.19"/><polygon class="cls-3" points="242.3 206.19 267.51 231.4 259.58 231.4 234.38 206.19 242.3 206.19"/><polygon class="cls-3" points="258.14 206.19 283.35 231.4 275.43 231.4 250.22 206.19 258.14 206.19"/><polygon class="cls-3" points="273.99 206.19 299.2 231.4 291.27 231.4 266.07 206.19 273.99 206.19"/><polygon class="cls-3" points="289.83 206.19 315.04 231.4 307.12 231.4 281.91 206.19 289.83 206.19"/><polygon class="cls-5" points="297.75 206.19 322.96 231.4 315.04 231.4 289.83 206.19 297.75 206.19"/><polygon class="cls-3" points="337.37 206.19 362.57 231.4 354.65 231.4 329.44 206.19 337.37 206.19"/></g><rect class="cls-2" x="204.54" y="204.34" width="86.72" height="7.2"/><path class="cls-2" d="M227.6,197.1a3.86,3.86,0,0,1,2.89,1,3.82,3.82,0,0,1,0,5.23,4,4,0,0,1-2.89,1.1h-2.38V197.1ZM227,203h.45a2.67,2.67,0,0,0,1.67-.5,2.27,2.27,0,0,0,.72-1.77,2.14,2.14,0,0,0-.61-1.58,2.42,2.42,0,0,0-1.78-.63H227Z"/><path class="cls-2" d="M235.22,197.1a2.63,2.63,0,0,1,1.87.64,2.2,2.2,0,0,1,.64,1.64,2,2,0,0,1-.57,1.49,2.2,2.2,0,0,1-1,.56l2.26,3h-2.07l-2-2.9v2.9h-1.7V197.1Zm-.88,3.33h.38a1.4,1.4,0,0,0,1-.32,1,1,0,0,0,.27-.71.9.9,0,0,0-.34-.75,1.64,1.64,0,0,0-.93-.23h-.4Z"/><path class="cls-2" d="M240.88,197.1v7.34h-1.69V197.1Z"/><path class="cls-2" d="M243.42,197.1l1.86,4.7,1.86-4.7H249l-3.11,7.34h-1.15l-3.11-7.34Z"/><path class="cls-2" d="M253.8,198.53h-2.46V200h2.34v1.43h-2.34V203h2.46v1.43h-4.15V197.1h4.15Z"/><path class="cls-2" d="M254.75,201h2.82v1.39h-2.82Z"/><path class="cls-2" d="M261.33,198.53v5.91h-1.69v-5.91H258V197.1h4.89v1.43Z"/><path class="cls-2" d="M265.35,199.89h2.92V197.1H270v7.34h-1.7v-3.12h-2.92v3.12h-1.7V197.1h1.7Z"/><path class="cls-2" d="M274,197.1a2.61,2.61,0,0,1,1.87.64,2.2,2.2,0,0,1,.64,1.64,2,2,0,0,1-.57,1.49,2.21,2.21,0,0,1-1,.56l2.25,3h-2.07l-2-2.9v2.9h-1.69V197.1Zm-.88,3.33h.39a1.39,1.39,0,0,0,1-.32,1,1,0,0,0,.27-.71.87.87,0,0,0-.34-.75,1.62,1.62,0,0,0-.93-.23h-.4Z"/><path class="cls-2" d="M284.12,201.45a3.1,3.1,0,0,1-.81,2.32,3.57,3.57,0,0,1-4.58,0,3.14,3.14,0,0,1-.81-2.32V197.1h1.69v4.3a1.74,1.74,0,0,0,.39,1.23,1.35,1.35,0,0,0,1,.39,1.37,1.37,0,0,0,1-.39,1.73,1.73,0,0,0,.38-1.23v-4.3h1.69Z"/><path class="cls-2" d="M12.67,33.13v251.8H25.15V218.76H160.49v66.17H173V33.13ZM160.49,165.72H25.15V152.47H160.49ZM25.15,99.43V86.17H160.49V99.43Z"/><polygon class="cls-9" points="195.87 181.79 172.98 181.79 172.98 179.98 194.06 179.98 194.06 164.43 172.98 164.43 172.98 162.61 195.87 162.61 195.87 181.79"/><circle class="cls-10" cx="196.18" cy="171.76" r="15.27"/><path class="cls-9" d="M196.18,187.94a16.18,16.18,0,1,1,16.18-16.18A16.19,16.19,0,0,1,196.18,187.94Zm0-30.54a14.37,14.37,0,1,0,14.37,14.36A14.37,14.37,0,0,0,196.18,157.4Z"/><path class="cls-3" d="M191.36,163.52h6.29a5.68,5.68,0,0,1,3.9,1.22,5.18,5.18,0,0,1,1.88,4.15,5.24,5.24,0,0,1-5.44,5.22h-4v6.77h-2.63Zm2.63,8.1h3.9a2.75,2.75,0,0,0,2.91-2.81,2.56,2.56,0,0,0-1.13-2.31,3,3,0,0,0-1.87-.49H194Z"/><polygon class="cls-3" points="160.5 214.81 25.15 214.81 25.15 218.76 41.22 218.76 41.22 225.45 43.4 225.45 43.4 218.76 142.68 218.76 142.68 225.45 144.86 225.45 144.86 218.76 160.5 218.76 160.5 214.81"/><polygon class="cls-2" points="40.11 255.42 36.39 255.42 36.39 253.68 30.66 253.68 30.66 284.93 36.39 284.93 36.39 265.55 40.11 265.55 40.11 255.42"/><rect class="cls-10" x="37.66" y="224.71" width="111.04" height="5"/><path class="cls-3" d="M48.31,223.12h2.31a2.76,2.76,0,1,1,0,5.51H49.36v2.85h-1Zm2.09,4.59c1.26,0,2-.62,2-1.83s-.73-1.84-2-1.84h-1v3.67Z"/><path class="cls-3" d="M59.54,229.53h-3.9l-.76,1.95H53.73l3.4-8.36h.92l3.4,8.36H60.3Zm-1.95-5L56,228.61h3.17Z"/><path class="cls-3" d="M64.1,227.92v3.56h-1v-8.36h2.41a2.52,2.52,0,1,1,.26,5L69,231.48H67.49Zm0-.65H65c1.61,0,2.18-.71,2.18-1.62A1.59,1.59,0,0,0,65.43,224H64.1Z"/><path class="cls-3" d="M75,223.12h1.36l-3.76,4.08,3.84,4.28H74.92l-3.34-3.82v3.82h-1v-8.36h1V227Z"/><path class="cls-3" d="M78,223.12H79v8.36H78Z"/><path class="cls-3" d="M86.65,223.12h1.06v8.36h-1L82.23,225h0v6.47H81.15v-8.36h1l4.49,6.47h0Z"/><path class="cls-3" d="M94.3,226.87h4.21a4.41,4.41,0,0,1-4.41,4.74,4.31,4.31,0,1,1,3-7.49l-.67.79A3.47,3.47,0,0,0,94.1,224a3.32,3.32,0,1,0,3.26,3.88H94.3Z"/><path class="cls-3" d="M103.81,223.12h4.32v1h-3.26v2.65h3.26v1h-3.26v2.74h3.26v1h-4.32Z"/><path class="cls-3" d="M115.53,223.12h1v8.36h-1L111.11,225h0v6.47h-1v-8.36h1l4.49,6.47h0Z"/><path class="cls-3" d="M120.25,224.11h-2.09v-1h5.23v1H121.3v7.37h-1Z"/><path class="cls-3" d="M126.06,227.92v3.56h-1v-8.36h2.41a2.52,2.52,0,1,1,.26,5l3.26,3.33h-1.49Zm0-.65H127c1.62,0,2.18-.71,2.18-1.62A1.58,1.58,0,0,0,127.4,224h-1.34Z"/><path class="cls-3" d="M136.84,223.12h1.23l-2.83,5v3.33h-1.06v-3.33l-2.82-5h1.23l2.12,3.92Z"/><rect class="cls-5" x="298.33" y="220.07" width="70.98" height="38.86" rx="4.06"/><rect class="cls-3" x="300.26" y="222.28" width="66.55" height="22.97"/><path class="cls-5" d="M311.53,238.75a4,4,0,0,1-4,4,3.77,3.77,0,0,1-4.1-4.1v-9.57a3.88,3.88,0,0,1,4-4,4,4,0,0,1,4,4.15v1H309v-.83a1.64,1.64,0,0,0-1.54-1.8c-1.25,0-1.54.85-1.54,2v8.89c0,1,.39,1.78,1.51,1.78a1.54,1.54,0,0,0,1.57-1.75v-.86h2.49Z"/><path class="cls-5" d="M316,225.25H318l3.88,17.39h-2.49l-.73-3.74h-3.39l-.74,3.74h-2.49Zm1.05,5H317l-1.22,6.3h2.49Z"/><path class="cls-5" d="M330.81,238.73a4,4,0,1,1-8.05,0V225.25h2.49v13.24c0,1.22.66,1.8,1.54,1.8s1.53-.58,1.53-1.8V225.25h2.49Z"/><path class="cls-5" d="M334.43,227.6h-2.88v-2.35h8.25v2.35h-2.88v15h-2.49Z"/><path class="cls-5" d="M340.6,225.25h2.49v17.39H340.6Z"/><path class="cls-5" d="M345,229.36a4.18,4.18,0,1,1,8.35,0v9.18a4.18,4.18,0,1,1-8.35,0Zm2.49,9.18a1.69,1.69,0,1,0,3.37,0v-9.18a1.69,1.69,0,1,0-3.37,0Z"/><path class="cls-5" d="M355.08,225.25h2.39l3.76,10.48h0V225.25h2.49v17.39h-2.34l-3.81-10.45h-.05v10.45h-2.49Z"/><path class="cls-3" d="M300.31,247.32h1.38v8.24h2.73v1.38h-4.11Z"/><path class="cls-3" d="M305,249.59a2.31,2.31,0,1,1,4.62,0v5.08a2.31,2.31,0,1,1-4.62,0Zm1.38,5.08a.93.93,0,1,0,1.86,0v-5.08a.93.93,0,1,0-1.86,0Z"/><path class="cls-3" d="M316.2,256.94h-1.3l-1-6.24h0l-1,6.24h-1.3l-1.43-9.62h1.46l.68,6.11h0l1.08-6.11h1.06l1.12,6.25h0l.66-6.25h1.46Z"/><path class="cls-3" d="M325,254.79a2.22,2.22,0,0,1-2.18,2.23,2.09,2.09,0,0,1-2.27-2.27v-5.29a2.15,2.15,0,0,1,2.24-2.22,2.18,2.18,0,0,1,2.21,2.3v.54H323.6v-.46a.91.91,0,0,0-.85-1c-.69,0-.85.47-.85,1.12v4.91c0,.56.21,1,.83,1a.85.85,0,0,0,.87-1v-.47H325Z"/><path class="cls-3" d="M325.89,247.32h1.38v8.24H330v1.38h-4.11Z"/><path class="cls-3" d="M330.68,247.32h4.11v1.3h-2.73v2.82h2.38v1.3h-2.38v2.82h2.73v1.38h-4.11Z"/><path class="cls-3" d="M337,247.32h1.15l2.15,9.62h-1.38l-.41-2.07h-1.87l-.41,2.07h-1.38Zm.58,2.77h0l-.68,3.48h1.38Z"/><path class="cls-3" d="M340.77,247.32H343c1.64,0,2.43,1,2.43,2.82a2.46,2.46,0,0,1-1.19,2.41l1.49,4.39h-1.46L343,252.83h-.83v4.11h-1.37Zm1.37,4.3h.79c1,0,1.11-.54,1.11-1.5s-.17-1.5-1.18-1.5h-.72Z"/><path class="cls-3" d="M347.84,247.32H349l2.15,9.62h-1.38l-.41-2.07h-1.87l-.41,2.07h-1.38Zm.58,2.77h0l-.68,3.48h1.38Z"/><path class="cls-3" d="M351.55,247.32h1.33l2.08,5.8h0v-5.8h1.38v9.62h-1.3l-2.1-5.78h0v5.78h-1.38Z"/><path class="cls-3" d="M361.77,254.79a2.22,2.22,0,0,1-2.18,2.23,2.09,2.09,0,0,1-2.27-2.27v-5.29a2.15,2.15,0,0,1,2.24-2.22,2.18,2.18,0,0,1,2.21,2.3v.54H360.4v-.46a.91.91,0,0,0-.86-1c-.68,0-.85.47-.85,1.12v4.91c0,.56.22,1,.84,1a.85.85,0,0,0,.87-1v-.47h1.37Z"/><path class="cls-3" d="M362.69,247.32h4.1v1.3h-2.72v2.82h2.37v1.3h-2.37v2.82h2.72v1.38h-4.1Z"/></svg>