<svg id="Layer_1" data-name="Layer 1" xmlns="http://www.w3.org/2000/svg" xmlns:xlink="http://www.w3.org/1999/xlink" viewBox="0 0 612 284.93"><defs><style>.cls-1,.cls-6,.cls-7{fill:none;}.cls-2{fill:#bfe6ed;}.cls-3{fill:#2d1347;}.cls-4{fill:#33bad1;}.cls-5{fill:#f6d41a;}.cls-6{stroke:#f6d41a;stroke-width:3.13px;}.cls-7{stroke:#2c1446;stroke-width:1.04px;}.cls-8{clip-path:url(#clip-path);}.cls-9{fill:#2c1446;}.cls-10{fill:#f5d41b;}</style><clipPath id="clip-path"><rect class="cls-1" x="325.5" y="189.46" width="2.61" height="58.71" transform="translate(545.62 -108) rotate(90)"/></clipPath></defs><polygon class="cls-2" points="387.62 215.02 387.62 284.93 399.12 284.93 399.12 223.86 523.81 223.86 523.81 284.93 535.31 284.93 535.31 215.02 387.62 215.02"/><rect class="cls-3" x="378.5" y="210.56" width="165.93" height="4.46"/><rect class="cls-2" x="378.5" y="165.67" width="165.93" height="44.9"/><rect class="cls-4" x="399.12" y="223.86" width="124.69" height="61.08"/><rect class="cls-2" x="404.58" y="228.86" width="18.39" height="13.86"/><rect class="cls-2" x="428.43" y="228.86" width="18.39" height="13.86"/><rect class="cls-2" x="452.27" y="228.86" width="18.39" height="13.86"/><rect class="cls-2" x="476.12" y="228.86" width="18.39" height="13.86"/><rect class="cls-2" x="499.97" y="228.86" width="18.39" height="13.86"/><rect class="cls-3" x="460.35" y="273.65" width="2.24" height="6.27" transform="translate(738.25 -184.68) rotate(90)"/><rect class="cls-2" x="578.85" y="206.4" width="4.02" height="78.53"/><rect class="cls-5" x="563.92" y="209.37" width="33.89" height="33.89" rx="1.83" transform="translate(10.1 477.02) rotate(-45)"/><rect class="cls-6" x="563.92" y="209.37" width="33.89" height="33.89" rx="1.83" transform="translate(10.1 477.02) rotate(-45)"/><rect class="cls-7" x="563.92" y="209.37" width="33.89" height="33.89" rx="1.83" transform="translate(10.1 477.02) rotate(-45)"/><path class="cls-3" d="M569.58,219.65H568.4v-1h3.38v1H570.6v6.15h-1Z"/><path class="cls-3" d="M575.73,224.2a1.65,1.65,0,1,1-3.3,0v-5.51h1v5.41c0,.5.27.74.63.74s.63-.24.63-.74v-5.41h1Z"/><path class="cls-3" d="M576.85,218.69h1l1.54,4.28h0v-4.28h1v7.11h-1l-1.56-4.28h0v4.28h-1Z"/><path class="cls-3" d="M581.49,218.69h1L584,223h0v-4.28h1v7.11h-1l-1.56-4.28h0v4.28h-1Z"/><path class="cls-3" d="M586.17,218.69h3v1h-2v2.08H589v1h-1.76v2.09h2v1h-3Z"/><path class="cls-3" d="M590.07,218.69h1v6.09h2v1h-3Z"/><path class="cls-3" d="M571.89,228.69h.85l1.59,7.11h-1l-.3-1.53h-1.39l-.3,1.53h-1Zm.43,2h0l-.5,2.58h1Z"/><path class="cls-3" d="M575,228.69h1v3h1.26v-3h1v7.11h-1v-3.17h-1.26v3.17h-1Z"/><path class="cls-3" d="M579.49,228.69h3v1h-2v2.08h1.76v1h-1.76v2.09h2v1h-3Z"/><path class="cls-3" d="M584.52,228.69h.85L587,235.8h-1l-.3-1.53h-1.39l-.3,1.53h-1Zm.43,2h0l-.5,2.58h1Z"/><path class="cls-3" d="M587.66,228.69h1.51a1.65,1.65,0,0,1,1.79,1.83v3.33a1.71,1.71,0,0,1-1.88,2h-1.42Zm1,6.15h.47c.57,0,.79-.28.79-.89v-3.43c0-.56-.19-.87-.79-.87h-.47Z"/><rect class="cls-2" x="285.21" y="194.06" width="3.82" height="90.87"/><rect class="cls-2" x="300.41" y="207.94" width="1.11" height="10.49"/><rect class="cls-2" x="352.61" y="207.94" width="1.11" height="10.49"/><g class="cls-8"><polygon class="cls-5" points="258.24 206.19 283.45 231.4 275.53 231.4 250.32 206.19 258.24 206.19"/><polygon class="cls-5" points="242.4 206.19 267.61 231.4 259.68 231.4 234.48 206.19 242.4 206.19"/><polygon class="cls-5" points="274.09 206.19 299.29 231.4 291.37 231.4 266.17 206.19 274.09 206.19"/><polygon class="cls-5" points="385 206.19 410.2 231.4 402.28 231.4 377.07 206.19 385 206.19"/><polygon class="cls-5" points="400.84 206.19 426.05 231.4 418.13 231.4 392.92 206.19 400.84 206.19"/><polygon class="cls-5" points="289.93 206.19 315.14 231.4 307.22 231.4 282.01 206.19 289.93 206.19"/><polygon class="cls-5" points="305.78 206.19 330.98 231.4 323.06 231.4 297.85 206.19 305.78 206.19"/><polygon class="cls-5" points="321.62 206.19 346.83 231.4 338.9 231.4 313.7 206.19 321.62 206.19"/><polygon class="cls-5" points="337.46 206.19 362.67 231.4 354.75 231.4 329.54 206.19 337.46 206.19"/><polygon class="cls-5" points="353.31 206.19 378.52 231.4 370.59 231.4 345.39 206.19 353.31 206.19"/><polygon class="cls-3" points="250.32 206.19 275.53 231.4 267.61 231.4 242.4 206.19 250.32 206.19"/><polygon class="cls-3" points="266.17 206.19 291.37 231.4 283.45 231.4 258.24 206.19 266.17 206.19"/><polygon class="cls-3" points="377.07 206.19 402.28 231.4 394.36 231.4 369.15 206.19 377.07 206.19"/><polygon class="cls-3" points="392.92 206.19 418.13 231.4 410.2 231.4 385 206.19 392.92 206.19"/><polygon class="cls-3" points="282.01 206.19 307.22 231.4 299.29 231.4 274.09 206.19 282.01 206.19"/><polygon class="cls-3" points="297.85 206.19 323.06 231.4 315.14 231.4 289.93 206.19 297.85 206.19"/><polygon class="cls-3" points="313.7 206.19 338.9 231.4 330.98 231.4 305.78 206.19 313.7 206.19"/><polygon class="cls-3" points="329.54 206.19 354.75 231.4 346.83 231.4 321.62 206.19 329.54 206.19"/><polygon class="cls-3" points="345.39 206.19 370.59 231.4 362.67 231.4 337.46 206.19 345.39 206.19"/><polygon class="cls-3" points="361.23 206.19 386.44 231.4 378.52 231.4 353.31 206.19 361.23 206.19"/><polygon class="cls-5" points="369.15 206.19 394.36 231.4 386.44 231.4 361.23 206.19 369.15 206.19"/><polygon class="cls-3" points="408.76 206.19 433.97 231.4 426.05 231.4 400.84 206.19 408.76 206.19"/></g><rect class="cls-2" x="275.94" y="204.34" width="86.72" height="7.2"/><path class="cls-2" d="M299,197.1a3.88,3.88,0,0,1,2.9,1,3.85,3.85,0,0,1,.05,5.23,4,4,0,0,1-2.89,1.1h-2.38V197.1Zm-.62,5.91h.45a2.67,2.67,0,0,0,1.67-.5,2.3,2.3,0,0,0,.72-1.77,2.18,2.18,0,0,0-.61-1.58,2.43,2.43,0,0,0-1.78-.63h-.45Z"/><path class="cls-2" d="M306.62,197.1a2.65,2.65,0,0,1,1.87.64,2.2,2.2,0,0,1,.64,1.64,2,2,0,0,1-.58,1.49,2.11,2.11,0,0,1-1,.56l2.26,3h-2.07l-2-2.9v2.9H304V197.1Zm-.88,3.33h.38a1.36,1.36,0,0,0,1-.32,1,1,0,0,0,.28-.71.9.9,0,0,0-.34-.75,1.67,1.67,0,0,0-.94-.23h-.39Z"/><path class="cls-2" d="M312.28,197.1v7.34h-1.69V197.1Z"/><path class="cls-2" d="M314.82,197.1l1.86,4.7,1.86-4.7h1.83l-3.12,7.34h-1.14L313,197.1Z"/><path class="cls-2" d="M325.2,198.53h-2.46V200h2.33v1.43h-2.33V203h2.46v1.43h-4.15V197.1h4.15Z"/><path class="cls-2" d="M326.15,201H329v1.39h-2.82Z"/><path class="cls-2" d="M332.73,198.53v5.91H331v-5.91h-1.6V197.1h4.89v1.43Z"/><path class="cls-2" d="M336.74,199.89h2.93V197.1h1.7v7.34h-1.7v-3.12h-2.93v3.12h-1.69V197.1h1.69Z"/><path class="cls-2" d="M345.38,197.1a2.63,2.63,0,0,1,1.87.64,2.2,2.2,0,0,1,.64,1.64,2,2,0,0,1-.57,1.49,2.2,2.2,0,0,1-1,.56l2.26,3h-2.07l-2-2.9v2.9h-1.7V197.1Zm-.88,3.33h.38a1.4,1.4,0,0,0,1-.32,1,1,0,0,0,.27-.71.9.9,0,0,0-.34-.75,1.62,1.62,0,0,0-.93-.23h-.4Z"/><path class="cls-2" d="M355.52,201.45a3.14,3.14,0,0,1-.81,2.32,3.57,3.57,0,0,1-4.58,0,3.14,3.14,0,0,1-.81-2.32V197.1H351v4.3a1.69,1.69,0,0,0,.39,1.23,1.53,1.53,0,0,0,2,0,1.69,1.69,0,0,0,.39-1.23v-4.3h1.69Z"/><path class="cls-2" d="M12.67,33.13v251.8H25.15V218.76H160.49v66.17H173V33.13ZM160.49,165.72H25.15V152.47H160.49ZM25.15,99.43V86.17H160.49V99.43Z"/><polygon class="cls-9" points="195.87 181.79 172.98 181.79 172.98 179.98 194.06 179.98 194.06 164.43 172.98 164.43 172.98 162.61 195.87 162.61 195.87 181.79"/><circle class="cls-10" cx="196.18" cy="171.76" r="15.27"/><path class="cls-9" d="M196.18,187.94a16.18,16.18,0,1,1,16.18-16.18A16.19,16.19,0,0,1,196.18,187.94Zm0-30.54a14.37,14.37,0,1,0,14.37,14.36A14.37,14.37,0,0,0,196.18,157.4Z"/><path class="cls-3" d="M191.36,163.52h6.29a5.68,5.68,0,0,1,3.9,1.22,5.18,5.18,0,0,1,1.88,4.15,5.24,5.24,0,0,1-5.44,5.22h-4v6.77h-2.63Zm2.63,8.1h3.9a2.75,2.75,0,0,0,2.91-2.81,2.56,2.56,0,0,0-1.13-2.31,3,3,0,0,0-1.87-.49H194Z"/><polygon class="cls-3" points="160.5 214.81 25.15 214.81 25.15 218.76 41.22 218.76 41.22 225.45 43.4 225.45 43.4 218.76 142.68 218.76 142.68 225.45 144.86 225.45 144.86 218.76 160.5 218.76 160.5 214.81"/><rect class="cls-2" x="30.66" y="253.68" width="5.73" height="31.25"/><rect class="cls-2" x="34.22" y="255.42" width="5.9" height="10.13"/><rect class="cls-10" x="37.66" y="224.71" width="111.04" height="5"/><path class="cls-3" d="M48.31,223.12h2.31a2.76,2.76,0,1,1,0,5.51H49.36v2.85h-1Zm2.09,4.59c1.26,0,2-.62,2-1.83s-.73-1.84-2-1.84h-1v3.67Z"/><path class="cls-3" d="M59.54,229.53h-3.9l-.76,1.95H53.73l3.4-8.36h.92l3.4,8.36H60.3Zm-1.95-5L56,228.61h3.17Z"/><path class="cls-3" d="M64.1,227.92v3.56h-1v-8.36h2.41a2.52,2.52,0,1,1,.26,5L69,231.48H67.49Zm0-.65H65c1.61,0,2.18-.71,2.18-1.62A1.59,1.59,0,0,0,65.43,224H64.1Z"/><path class="cls-3" d="M75,223.12h1.36l-3.76,4.08,3.84,4.28H74.92l-3.34-3.82v3.82h-1v-8.36h1V227Z"/><path class="cls-3" d="M78,223.12H79v8.36H78Z"/><path class="cls-3" d="M86.65,223.12h1.06v8.36h-1L82.23,225h0v6.47H81.15v-8.36h1l4.49,6.47h0Z"/><path class="cls-3" d="M94.3,226.87h4.21a4.41,4.41,0,0,1-4.41,4.74,4.31,4.31,0,1,1,3-7.49l-.67.79A3.47,3.47,0,0,0,94.1,224a3.32,3.32,0,1,0,3.26,3.88H94.3Z"/><path class="cls-3" d="M103.81,223.12h4.32v1h-3.26v2.65h3.26v1h-3.26v2.74h3.26v1h-4.32Z"/><path class="cls-3" d="M115.53,223.12h1v8.36h-1L111.11,225h0v6.47h-1v-8.36h1l4.49,6.47h0Z"/><path class="cls-3" d="M120.25,224.11h-2.09v-1h5.23v1H121.3v7.37h-1Z"/><path class="cls-3" d="M126.06,227.92v3.56h-1v-8.36h2.41a2.52,2.52,0,1,1,.26,5l3.26,3.33h-1.49Zm0-.65H127c1.62,0,2.18-.71,2.18-1.62A1.58,1.58,0,0,0,127.4,224h-1.34Z"/><path class="cls-3" d="M136.84,223.12h1.23l-2.83,5v3.33h-1.06v-3.33l-2.82-5h1.23l2.12,3.92Z"/><rect class="cls-5" x="368.07" y="157.4" width="70.98" height="38.86" rx="4.06"/><rect class="cls-3" x="370.01" y="159.61" width="66.55" height="22.97"/><path class="cls-5" d="M381.27,176.08a4,4,0,0,1-3.95,4c-1.91,0-4.11-.92-4.11-4.1v-9.57a3.89,3.89,0,0,1,4.06-4,4,4,0,0,1,4,4.15v1h-2.49v-.83a1.64,1.64,0,0,0-1.54-1.8c-1.24,0-1.54.85-1.54,2v8.89c0,1,.39,1.78,1.52,1.78a1.53,1.53,0,0,0,1.56-1.75V175h2.49Z"/><path class="cls-5" d="M385.69,162.58h2.08L391.65,180h-2.49l-.74-3.74H385L384.3,180h-2.49Zm1.05,5h-.05l-1.22,6.3H388Z"/><path class="cls-5" d="M400.56,176.06a4,4,0,1,1-8.06,0V162.58H395v13.24c0,1.22.66,1.8,1.54,1.8s1.54-.58,1.54-1.8V162.58h2.49Z"/><path class="cls-5" d="M404.17,164.93h-2.88v-2.35h8.25v2.35h-2.88v15h-2.49Z"/><path class="cls-5" d="M410.35,162.58h2.49V180h-2.49Z"/><path class="cls-5" d="M414.74,166.69a4.18,4.18,0,1,1,8.35,0v9.18a4.18,4.18,0,1,1-8.35,0Zm2.49,9.18a1.69,1.69,0,1,0,3.37,0v-9.18a1.69,1.69,0,1,0-3.37,0Z"/><path class="cls-5" d="M424.83,162.58h2.39L431,173.06h0V162.58h2.49V180h-2.35l-3.8-10.45h-.05V180h-2.49Z"/><path class="cls-3" d="M370.05,184.65h1.38v8.24h2.73v1.38h-4.11Z"/><path class="cls-3" d="M374.77,186.92a2.31,2.31,0,1,1,4.61,0V192a2.31,2.31,0,1,1-4.61,0Zm1.37,5.08a.94.94,0,1,0,1.87,0v-5.08a.94.94,0,1,0-1.87,0Z"/><path class="cls-3" d="M386,194.27h-1.3l-1-6.24h0l-1,6.24h-1.3l-1.43-9.62h1.46l.69,6.11h0l1.09-6.11h1.05l1.12,6.25h0l.66-6.25h1.46Z"/><path class="cls-3" d="M394.72,192.12a2.22,2.22,0,0,1-2.19,2.23,2.09,2.09,0,0,1-2.27-2.27v-5.29a2.16,2.16,0,0,1,2.25-2.22,2.19,2.19,0,0,1,2.21,2.3v.54h-1.38V187a.9.9,0,0,0-.85-1c-.69,0-.85.47-.85,1.12V192c0,.56.22,1,.84,1a.85.85,0,0,0,.86-1v-.47h1.38Z"/><path class="cls-3" d="M395.64,184.65H397v8.24h2.73v1.38h-4.1Z"/><path class="cls-3" d="M400.43,184.65h4.1V186H401.8v2.82h2.38v1.3H401.8v2.82h2.73v1.38h-4.1Z"/><path class="cls-3" d="M406.75,184.65h1.14l2.15,9.62h-1.38l-.4-2.07h-1.88l-.4,2.07H404.6Zm.58,2.77h0l-.67,3.48H408Z"/><path class="cls-3" d="M410.51,184.65h2.22c1.63,0,2.43,1,2.43,2.82a2.46,2.46,0,0,1-1.19,2.41l1.48,4.39H414l-1.29-4.11h-.82v4.11h-1.38Zm1.38,4.3h.78c1,0,1.11-.54,1.11-1.5s-.16-1.5-1.18-1.5h-.71Z"/><path class="cls-3" d="M417.59,184.65h1.14l2.15,9.62H419.5l-.4-2.07h-1.88l-.4,2.07h-1.38Zm.58,2.77h0l-.67,3.48h1.37Z"/><path class="cls-3" d="M421.3,184.65h1.32l2.08,5.8h0v-5.8h1.38v9.62h-1.3l-2.11-5.78h0v5.78H421.3Z"/><path class="cls-3" d="M431.52,192.12a2.22,2.22,0,0,1-2.19,2.23,2.09,2.09,0,0,1-2.27-2.27v-5.29a2.15,2.15,0,0,1,2.24-2.22,2.19,2.19,0,0,1,2.22,2.3v.54h-1.38V187a.9.9,0,0,0-.85-1c-.69,0-.85.47-.85,1.12V192c0,.56.21,1,.84,1a.85.85,0,0,0,.86-1v-.47h1.38Z"/><path class="cls-3" d="M432.43,184.65h4.11V186h-2.73v2.82h2.38v1.3h-2.38v2.82h2.73v1.38h-4.11Z"/></svg>