<svg id="Layer_1" data-name="Layer 1" xmlns="http://www.w3.org/2000/svg" viewBox="0 0 612 81.62"><defs><style>.cls-1{fill:#e92829;}.cls-2{fill:#fff;}.cls-3{fill:#010101;}.cls-4{fill:#2d1347;}.cls-5{fill:#bfe6ed;}</style></defs><title>Doof Web Art v110</title><rect class="cls-1" x="30.23" y="36.02" width="213.12" height="17.76"/><path class="cls-2" d="M34.11,40.11h2a2.21,2.21,0,0,1,2.39,2.45V47A2.28,2.28,0,0,1,36,49.6H34.11Zm1.36,8.21h.63c.76,0,1-.37,1-1.19V42.56c0-.74-.25-1.17-1-1.17h-.63Z"/><path class="cls-2" d="M39.51,42.35a2.28,2.28,0,1,1,4.55,0v5a2.28,2.28,0,1,1-4.55,0Zm1.36,5a.92.92,0,1,0,1.83,0v-5a.92.92,0,1,0-1.83,0Z"/><path class="cls-2" d="M45,40.11h1.3l2.06,5.72h0V40.11h1.36V49.6H48.47l-2.08-5.7h0v5.7H45Z"/><path class="cls-2" d="M50.7,40.11h1.35v1.36l-1.35,1Z"/><path class="cls-2" d="M54,41.39H52.37V40.11h4.51v1.28H55.3V49.6H54Z"/><path class="cls-2" d="M59.55,40.11h2A2.21,2.21,0,0,1,64,42.51v.35A1.74,1.74,0,0,1,63,44.62c.64.3.93.87.93,1.86V47A2.28,2.28,0,0,1,61.4,49.6H59.55ZM60.91,44h.61c.91,0,1.15-.46,1.15-1.33s-.31-1.28-1.2-1.28h-.56Zm0,4.24h.59c1.09,0,1.17-.67,1.17-1.6s-.17-1.44-1.16-1.44h-.6Z"/><path class="cls-2" d="M65,40.11h4v1.28H66.39v2.79h2.34v1.27H66.39v2.79h2.69V49.6H65Z"/><path class="cls-2" d="M73.54,40.11h1.13l2.12,9.49H75.43l-.4-2H73.18l-.4,2H71.42Zm.57,2.73h0l-.66,3.44h1.36Z"/><path class="cls-2" d="M79.53,40.11h2a2.21,2.21,0,0,1,2.39,2.45V47a2.28,2.28,0,0,1-2.51,2.6H79.53Zm1.36,8.21h.63c.76,0,1-.37,1-1.19V42.56c0-.74-.25-1.17-1-1.17h-.63Z"/><path class="cls-2" d="M84.93,42.35a2.28,2.28,0,1,1,4.55,0v5a2.28,2.28,0,1,1-4.55,0Zm1.36,5a.92.92,0,1,0,1.83,0v-5a.92.92,0,1,0-1.83,0Z"/><path class="cls-2" d="M90.4,42.35a2.28,2.28,0,1,1,4.56,0v5a2.28,2.28,0,1,1-4.56,0Zm1.36,5a.92.92,0,1,0,1.84,0v-5a.92.92,0,1,0-1.84,0Z"/><path class="cls-2" d="M96,40.11H100v1.28h-2.7v2.88h2.35v1.28H97.31V49.6H96Z"/><path class="cls-2" d="M99.13,48.24h1.36V49.6l-1.36,1Z"/><path class="cls-2" d="M155.46,42.35a2.28,2.28,0,1,1,4.56,0v5a2.28,2.28,0,1,1-4.56,0Zm1.36,5a.92.92,0,1,0,1.84,0v-5a.92.92,0,1,0-1.84,0Z"/><path class="cls-2" d="M161,40.11h1.3l2,5.72h0V40.11h1.36V49.6h-1.28l-2.08-5.7h0v5.7H161Z"/><path class="cls-2" d="M169,40.11h2.19c1.61,0,2.39,1,2.39,2.79a2.41,2.41,0,0,1-1.17,2.37l1.47,4.33h-1.44l-1.27-4.05h-.81V49.6H169Zm1.36,4.24h.77c1,0,1.09-.53,1.09-1.48s-.16-1.48-1.15-1.48h-.71Z"/><path class="cls-2" d="M174.41,42.35a2.28,2.28,0,1,1,4.55,0v5a2.28,2.28,0,1,1-4.55,0Zm1.35,5a.92.92,0,1,0,1.84,0v-5a.92.92,0,1,0-1.84,0Z"/><path class="cls-2" d="M179.88,42.35a2.28,2.28,0,1,1,4.56,0v5a2.28,2.28,0,1,1-4.56,0Zm1.36,5a.92.92,0,1,0,1.84,0v-5a.92.92,0,1,0-1.84,0Z"/><path class="cls-2" d="M185.43,40.11h4v1.28h-2.69v2.88h2.35v1.28h-2.35V49.6h-1.36Z"/><rect class="cls-2" x="104.08" y="40.11" width="48.09" height="9.48"/><path class="cls-3" d="M110.69,48.85a1.73,1.73,0,0,1-.56.09,5.24,5.24,0,0,1-2.53-1c-.18-.12-.25-.21-.25-.28s.14-.17.29-.17a.77.77,0,0,1,.29.07,4.35,4.35,0,0,0,2.07.67l.38,0a.45.45,0,0,0,.39-.48.54.54,0,0,0-.1-.33c-.72-.92-3-.94-3.79-1.54-.42-.3-.58-.57-.58-.79a.87.87,0,0,1,.58-.7,10.76,10.76,0,0,1,3.64-1.21c.33,0,.56.09.64.3a.88.88,0,0,1,.07.33c0,.19-.07.35-.27.35a.69.69,0,0,1-.25-.06,2.05,2.05,0,0,0-.6-.08,2.41,2.41,0,0,0-.65.08,15.45,15.45,0,0,0-1.9.67c-.22.09-.32.15-.32.23s.09.17.24.3c.38.35,3,.7,3.79,1.81a1.29,1.29,0,0,1,.27.72A1.19,1.19,0,0,1,110.69,48.85Z"/><path class="cls-3" d="M116.08,49.1a.29.29,0,0,1-.17-.05c-.34-.27-.46-.92-.72-1.5-.09-.21-.17-.35-.25-.35s-.13.07-.21.23c-.36.7-.72,1.19-1.36,1.19a1.1,1.1,0,0,1-.73-.25,2.5,2.5,0,0,1-.62-1.95,10.33,10.33,0,0,1,.19-1.79c0-.11.16-.16.31-.16s.48.11.48.34a.2.2,0,0,1,0,.07,5.86,5.86,0,0,0-.16,1.24,3.41,3.41,0,0,0,.25,1.34c.09.24.23.32.35.32a.63.63,0,0,0,.46-.29,2.62,2.62,0,0,0,.66-1.64c0-.07,0-.15,0-.24s.25-.32.48-.32a.41.41,0,0,1,.42.3c.3,1.07.61,2.37,1,2.68a.43.43,0,0,1,.19.32A.62.62,0,0,1,116.08,49.1Z"/><path class="cls-3" d="M119.33,46.05a.27.27,0,0,1-.12,0,.82.82,0,0,0-.3-.07.37.37,0,0,0-.32.19c-.45.69-.28,1.27-.59,2a.41.41,0,0,1-.38.25.38.38,0,0,1-.37-.28c-.12-.49-.21-.75-.37-1.24s-.58-.94-.58-1.37a.77.77,0,0,1,0-.15.35.35,0,0,1,.35-.23.38.38,0,0,1,.24.07c.55.42.44.55.56,1.15a.2.2,0,0,0,.19.16c.06,0,.13,0,.19-.16.22-.5,0-1.07.71-1.21l.3,0a.87.87,0,0,1,.66.25.36.36,0,0,1,.1.28C119.62,45.85,119.52,46.05,119.33,46.05Z"/><path class="cls-3" d="M123.66,46.23c-.33.35-1.32.3-2,.39-.14,0-.3.08-.31.23V47c0,.47.2,1.07.57,1.07h0c.13,0,.19.16.19.32s-.08.42-.22.43h-.07a1,1,0,0,1-1-.73A5.1,5.1,0,0,1,120.8,47c0-.15-.09-.33-.24-.33h0a4,4,0,0,1-.51.06.79.79,0,0,1-.44-.12.52.52,0,0,1-.22-.42.2.2,0,0,1,.15-.22l.26,0,.62,0h.08a.24.24,0,0,0,.23-.23c0-.44,0-.8,0-1.15a15.59,15.59,0,0,1,.12-1.94.59.59,0,0,1,.64-.57,1.5,1.5,0,0,1,.37.05,2.43,2.43,0,0,1,1.89,2.08h0c0,.15-.48.67-.67.67s-.09,0-.1-.1a1.34,1.34,0,0,1,0-.2c0-.16,0-.32,0-.48a1,1,0,0,0-.23-.69,1.51,1.51,0,0,0-.88-.55.34.34,0,0,0-.29.15,2.66,2.66,0,0,0-.25,1.36c0,.38,0,.81.07,1.21a.34.34,0,0,0,.31.34l.37,0c.48,0,.95-.11,1.54-.13h0c.14,0,.18.06.18.15A.55.55,0,0,1,123.66,46.23Z"/><path class="cls-3" d="M128.21,47.24c-.36,1.15-1.3,1.5-2.39,1.95a1.43,1.43,0,0,1-.53.1c-.26,0-.49-.09-.49-.34a.41.41,0,0,1,0-.11c.08-.39.1-.88.49-.89h0c.34,0,.16.54.42.54a.32.32,0,0,0,.16-.05c.68-.3,1.23-.46,1.51-1.16a1.4,1.4,0,0,0,.12-.51c0-.31-.18-.58-.79-.73a1,1,0,0,0-.25,0,1,1,0,0,0-1,.63A1.93,1.93,0,0,1,125,47.7a.74.74,0,0,1-.45.2c-.19,0-.33-.11-.33-.38v-.05c0-.29,0-.52,0-.74a4.91,4.91,0,0,0-.23-1.39,2.47,2.47,0,0,0-.79-1.41.39.39,0,0,1-.12-.29.71.71,0,0,1,.54-.64.17.17,0,0,1,.14.08,6.32,6.32,0,0,1,1.08,2.3c0,.12.06.3.2.3a.41.41,0,0,0,.26-.14,1.7,1.7,0,0,1,1.13-.48,1.65,1.65,0,0,1,.63.13,1.76,1.76,0,0,1,1.2,1.56A1.79,1.79,0,0,1,128.21,47.24Z"/><path class="cls-3" d="M132,47.41a1.91,1.91,0,0,1-1.66,1.38,1.73,1.73,0,0,1-1.29-.62,1.61,1.61,0,0,1-.43-1,1.88,1.88,0,0,1,1.06-1.69,4,4,0,0,0,.9-.65.71.71,0,0,1,.53-.26.52.52,0,0,1,.49.35,5.15,5.15,0,0,1,.57,1.71A2.3,2.3,0,0,1,132,47.41ZM131.31,46s-.06-.07-.08-.07-.19.2-.37.2a.4.4,0,0,1-.24-.09c-.08-.06-.15-.14-.26-.14a1,1,0,0,0-.41.19,1,1,0,0,0-.53.91,1,1,0,0,0,.3.83,1.1,1.1,0,0,0,.69.23,1.12,1.12,0,0,0,1-.63,1.21,1.21,0,0,0,.16-.63A1.48,1.48,0,0,0,131.31,46Z"/><path class="cls-3" d="M137.57,49a.18.18,0,0,1-.13,0,3.14,3.14,0,0,1-1-1.86c-.06-.25-.19-.35-.3-.35a.45.45,0,0,0-.3.16A6.9,6.9,0,0,1,134,48.41a1.53,1.53,0,0,1-.75.23,1.06,1.06,0,0,1-1-1.11,1.08,1.08,0,0,1,.17-.57,5.1,5.1,0,0,1,2.3-1.78,1.79,1.79,0,0,1,.67-.19.65.65,0,0,1,.45.17.54.54,0,0,0,.3.18c.08,0,.17-.06.28-.2a.29.29,0,0,1,.22-.12.58.58,0,0,1,.46.35c.34.74-.1,2.51.87,2.79a.18.18,0,0,1,.12.19C138.05,48.59,137.81,49,137.57,49Zm-2.65-3a.47.47,0,0,0-.16.05,4.64,4.64,0,0,0-1.63,1.28.36.36,0,0,0,.34.58h0c.49,0,.89-.72,1.62-1,.06,0,.11-.21.11-.41S135.13,45.94,134.92,45.94Z"/><path class="cls-3" d="M140.7,46.05a.23.23,0,0,1-.11,0,.92.92,0,0,0-.3-.07.38.38,0,0,0-.33.19c-.45.69-.28,1.27-.59,2a.4.4,0,0,1-.38.25.36.36,0,0,1-.36-.28c-.13-.49-.22-.75-.38-1.24s-.58-.94-.58-1.37a.8.8,0,0,1,0-.15.34.34,0,0,1,.35-.23.42.42,0,0,1,.24.07c.54.42.43.55.56,1.15a.19.19,0,0,0,.18.16.22.22,0,0,0,.19-.16c.23-.5,0-1.07.71-1.21l.3,0a.9.9,0,0,1,.67.25.39.39,0,0,1,.09.28C141,45.85,140.9,46.05,140.7,46.05Z"/><path class="cls-3" d="M146.46,48.4a.89.89,0,0,1-.31.06.65.65,0,0,1-.46-.18A4,4,0,0,1,145,47a.39.39,0,0,0-.31-.17.28.28,0,0,0-.23.13,3.49,3.49,0,0,1-1.64,1.58,2.21,2.21,0,0,1-.91.23.89.89,0,0,1-1-.84.74.74,0,0,1,.16-.47,9.77,9.77,0,0,1,3-2.24c.13-.07.27-.15.27-.3h0a10.56,10.56,0,0,0-.23-1.8v0a.26.26,0,0,1,.27-.25.4.4,0,0,1,.25.1,1.93,1.93,0,0,1,.68,1.41c0,.91.08,3.15,1.14,3.63.13.06.18.12.18.18S146.59,48.35,146.46,48.4ZM144.21,46a.31.31,0,0,0-.13,0,8.59,8.59,0,0,0-2.26,1.61.35.35,0,0,0-.07.21.31.31,0,0,0,.35.32.93.93,0,0,0,.32-.07,5,5,0,0,0,1.91-1.76.3.3,0,0,0,.08-.19C144.41,46,144.32,46,144.21,46Z"/><path class="cls-3" d="M149.81,45.35a.72.72,0,0,1-.56.36c-.08,0-.13,0-.13-.09v0s0-.06,0-.09a.25.25,0,0,0-.24-.28l-.11,0a6.29,6.29,0,0,1-.74.38.15.15,0,0,0-.1.16A.28.28,0,0,0,148,46a13.64,13.64,0,0,1,1.5,1.55.86.86,0,0,1,.18.51.73.73,0,0,1-.25.55,3.59,3.59,0,0,1-1.87.68.73.73,0,0,1-.39-.09.56.56,0,0,1-.31-.44.34.34,0,0,1,.36-.32.46.46,0,0,1,.19,0,.78.78,0,0,0,.36.08,1.71,1.71,0,0,0,.79-.26.29.29,0,0,0,.18-.25.8.8,0,0,0-.21-.44c-.72-1-1.43-1-1.61-1.55a1,1,0,0,1-.07-.34.62.62,0,0,1,.38-.59,6.61,6.61,0,0,1,1.8-.73h.12c.52.15.69.39.69.71A1.3,1.3,0,0,1,149.81,45.35Z"/><rect class="cls-2" x="210.69" y="40.11" width="28.71" height="9.47"/><path class="cls-2" d="M197.66,40.76h-.78v-.64h2.25v.64h-.79v4.1h-.68Z"/><path class="cls-2" d="M199.31,41.24a1.14,1.14,0,1,1,2.27,0v2.5a1.14,1.14,0,1,1-2.27,0Zm.68,2.5a.44.44,0,0,0,.46.48.44.44,0,0,0,.46-.48v-2.5a.44.44,0,0,0-.46-.48.44.44,0,0,0-.46.48Z"/><path class="cls-2" d="M202.55,40.76h-.78v-.64H204v.64h-.78v4.1h-.68Z"/><path class="cls-2" d="M204.7,40.12h.57l1.06,4.74h-.68l-.2-1h-.93l-.2,1h-.67Zm.29,1.36h0l-.34,1.72h.68Z"/><path class="cls-2" d="M206.66,40.12h.68v4.06h1.34v.68h-2Z"/><path class="cls-2" d="M197.67,45.9h.53v1.56h.64V45.9h.53v3.66h-.53V47.93h-.64v1.63h-.53Z"/><path class="cls-2" d="M199.86,45.9h1.56v.49h-1v1.07h.9V48h-.9V49h1v.53h-1.56Z"/><path class="cls-2" d="M201.78,45.9h.52v3.66h-.52Z"/><path class="cls-2" d="M202.78,46.76a.88.88,0,1,1,1.76,0v.18H204v-.18a.34.34,0,0,0-.35-.37.34.34,0,0,0-.36.37v1.93a.34.34,0,0,0,.36.37.34.34,0,0,0,.35-.37V48h-.41v-.46h.94v1.15a.88.88,0,1,1-1.76,0Z"/><path class="cls-2" d="M205,45.9h.53v1.56h.64V45.9h.53v3.66h-.53V47.93h-.64v1.63H205Z"/><path class="cls-2" d="M207.54,46.39h-.61V45.9h1.74v.49h-.61v3.17h-.52Z"/><path class="cls-3" d="M221.42,43a14.24,14.24,0,0,0-1.58,4.5v.14c0,.27-.07.43-.18.43s-.18-.07-.3-.21a1,1,0,0,1-.16-.61c0-1.06.9-2.86,1.23-3.78a.86.86,0,0,0,.06-.25c0-.17-.15-.15-.3-.18a3.7,3.7,0,0,0-.59,0c-.42,0-.86.06-1.24.06a1.3,1.3,0,0,1-.83-.21.42.42,0,0,1-.15-.32.23.23,0,0,1,.19-.25c.35,0,.84,0,1.34,0a11.27,11.27,0,0,1,2.19.16c.2,0,.39.15.39.37A.49.49,0,0,1,221.42,43Z"/><path class="cls-3" d="M222.09,44,222,44a.27.27,0,0,1-.24-.29.39.39,0,0,1,.12-.28c.43-.46.4-1.26.5-2a.38.38,0,0,1,.41-.29.35.35,0,0,1,.39.32C223.15,42.53,223,43.48,222.09,44Z"/><path class="cls-3" d="M229.5,45.57h-.07c-.24,0,.06.45-1.17.54-.1,0-.21.07-.21.18,0,.36.1.6.1,1s-.08.31-.2.31a1,1,0,0,1-.34-.11c-.41-.2-.4-.83-.47-1.16a.29.29,0,0,0-.26-.22l-.19,0a4,4,0,0,0-1.37.47l-.1,0a.63.63,0,0,1-.52-.57.27.27,0,0,1,.07-.2,27.44,27.44,0,0,0,2.29-2.92.38.38,0,0,0,.07-.25c0-.07,0-.14,0-.2a.39.39,0,0,1,.24-.38.84.84,0,0,1,.45-.12c.25,0,.47.11.47.43v0c-.06.84-.22,1.37-.22,2.19,0,.12,0,.24,0,.37s0,.2.14.22h.09c.26,0,.48-.2.71-.2l.14,0c.44.16.59.32.59.42S229.64,45.57,229.5,45.57Zm-2.14-1.44c0-.19-.08-.25-.13-.25s-.11.08-.15.12a6.75,6.75,0,0,0-.75.88c-.05.07-.18.22-.18.28a.16.16,0,0,0,.12.16l.35,0a5.27,5.27,0,0,0,.56,0c.07,0,.15,0,.16-.08a3,3,0,0,0,.06-.59A3.13,3.13,0,0,0,227.36,44.13Z"/><path class="cls-3" d="M229.85,43.71a.21.21,0,0,1-.18.1.36.36,0,0,1-.33-.33.2.2,0,0,1,0-.13,4.16,4.16,0,0,0,.5-2.13.18.18,0,0,1,.2-.16c.23,0,.6.23.6.48A3.66,3.66,0,0,1,229.85,43.71Zm1.19.41a.24.24,0,0,1-.18.1.21.21,0,0,1-.19-.23.34.34,0,0,1,0-.16,6.5,6.5,0,0,0,.53-2.28c.06-.39.24-.56.41-.56a.28.28,0,0,1,.27.23,2.18,2.18,0,0,1,.12.69A3.61,3.61,0,0,1,231,44.12Z"/><rect class="cls-2" x="193.41" y="36.02" width="0.25" height="17.76"/><path class="cls-4" d="M387.15,33.8H354v-8a5.76,5.76,0,0,0-5.76-5.76h-7.05a5.76,5.76,0,0,0-5.76,5.76v8h-33.2a12,12,0,0,0-11.93,11.94V58a11.94,11.94,0,0,0,11.93,11.93h85A11.94,11.94,0,0,0,399.08,58V45.74A12,12,0,0,0,387.15,33.8Z"/><rect class="cls-5" x="294.04" y="37.6" width="101.24" height="28.55" rx="8.14"/><path class="cls-4" d="M441.25,4.49H612a0,0,0,0,1,0,0V81.62a0,0,0,0,1,0,0H441.25A10.6,10.6,0,0,1,430.65,71V15.1A10.6,10.6,0,0,1,441.25,4.49Z"/><rect class="cls-4" x="468.45" width="11" height="6.98"/><rect class="cls-5" x="462.55" y="18.79" width="94.69" height="45.95" transform="translate(-0.01 83.4) rotate(-9.35)"/><rect class="cls-5" x="462.51" y="19.46" width="99.92" height="46.12" transform="translate(10.91 -70.91) rotate(8)"/><rect class="cls-4" x="479.45" y="8.37" width="70.12" height="66.6"/></svg>