<svg xmlns="http://www.w3.org/2000/svg" viewBox="0 0 612 160"><defs><style>.a{fill:#e92829;}.b{fill:#fff;}.c{fill:#010101;}.d{fill:none;stroke:#fff;stroke-width:0.67px;}.e{fill:#33bad1;}.f{fill:#bfe6ed;}.g{fill:#2d1347;}</style></defs><title>Doof Web Art v110</title><rect class="a" x="16.94" y="81.41" width="464.4" height="38.7"/><path class="b" d="M25.41,90.33H29.8c3.33,0,5.19,2,5.19,5.34v9.67c0,3.83-2,5.66-5.46,5.66H25.41Zm3,17.88h1.37c1.65,0,2.29-.81,2.29-2.58v-10c0-1.63-.55-2.55-2.29-2.55H28.37Z"/><path class="b" d="M37.17,95.21a5,5,0,1,1,9.93,0v10.91a5,5,0,1,1-9.93,0Zm3,10.91a2,2,0,1,0,4,0V95.21a2,2,0,1,0-4,0Z"/><path class="b" d="M49.15,90.33H52l4.47,12.45h.06V90.33h3V111H56.7L52.17,98.57h-.05V111h-3Z"/><path class="b" d="M61.55,90.33h3v3l-3,2.15Z"/><path class="b" d="M68.63,93.12H65.2V90.33H75v2.79H71.59V111h-3Z"/><path class="b" d="M80.85,90.33h4.32c3.84,0,5.26,2.52,5.26,5.22v.76a3.78,3.78,0,0,1-2,3.83c1.39.67,2,1.92,2,4.07v1.16c0,3.6-1.71,5.63-5.55,5.63h-4Zm3,8.48h1.33c2,0,2.5-1,2.5-2.91S87,93.12,85,93.12H83.81Zm0,9.23h1.28c2.38,0,2.55-1.45,2.55-3.49s-.38-3.13-2.52-3.13H83.81Z"/><path class="b" d="M92.78,90.33h8.82v2.79H95.74v6.06h5.11V102H95.74V108h5.86v3H92.78Z"/><path class="b" d="M111.32,90.33h2.47L118.41,111h-3l-.87-4.44h-4l-.87,4.44h-3Zm1.25,6h-.06l-1.45,7.49h3Z"/><path class="b" d="M124.38,90.33h4.39c3.34,0,5.19,2,5.19,5.34v9.67c0,3.83-2,5.66-5.45,5.66h-4.13Zm3,17.88h1.36c1.65,0,2.29-.81,2.29-2.58v-10c0-1.63-.55-2.55-2.29-2.55h-1.36Z"/><path class="b" d="M136.14,95.21a5,5,0,1,1,9.93,0v10.91a5,5,0,1,1-9.93,0Zm3,10.91a2,2,0,1,0,4,0V95.21a2,2,0,1,0-4,0Z"/><path class="b" d="M148.07,95.21a5,5,0,1,1,9.93,0v10.91a5,5,0,1,1-9.93,0Zm3,10.91a2,2,0,1,0,4,0V95.21a2,2,0,1,0-4,0Z"/><path class="b" d="M160.17,90.33H169v2.79h-5.87v6.27h5.11v2.78h-5.11V111h-3Z"/><path class="b" d="M167.08,108h3v3l-3,2.15Z"/><path class="b" d="M289.84,95.21a5,5,0,1,1,9.93,0v10.91a5,5,0,1,1-9.93,0Zm3,10.91a2,2,0,1,0,4,0V95.21a2,2,0,1,0-4,0Z"/><path class="b" d="M301.83,90.33h2.85l4.47,12.45h.05V90.33h3V111h-2.79l-4.53-12.43h-.06V111h-3Z"/><path class="b" d="M319.36,90.33h4.76c3.52,0,5.23,2.06,5.23,6.07,0,2.38-.67,4.12-2.56,5.16L330,111h-3.14l-2.76-8.83h-1.77V111h-3Zm3,9.23H324c2.06,0,2.38-1.16,2.38-3.22s-.35-3.22-2.53-3.22h-1.54Z"/><path class="b" d="M331.12,95.21a5,5,0,1,1,9.92,0v10.91a5,5,0,1,1-9.92,0Zm3,10.91a2,2,0,1,0,4,0V95.21a2,2,0,1,0-4,0Z"/><path class="b" d="M343,95.21a5,5,0,1,1,9.93,0v10.91a5,5,0,1,1-9.93,0Zm3,10.91a2,2,0,1,0,4,0V95.21a2,2,0,1,0-4,0Z"/><path class="b" d="M355.15,90.33H364v2.79h-5.86v6.27h5.11v2.78h-5.11V111h-3Z"/><rect class="b" x="177.88" y="90.33" width="104.79" height="20.66"/><path class="c" d="M190.54,103.86c0,1.79-3.64,4.63-6.94,5.13a2.55,2.55,0,0,1-.39,0c-1,0-1.72-.56-1.72-1a.59.59,0,0,1,.43-.54,1,1,0,0,0,.56-1v-.58c0-3.41-.45-7.31-1.16-7.91a1.35,1.35,0,0,1-.46-1,.75.75,0,0,1,.33-.67,6.21,6.21,0,0,1,3.6-1.32,7.73,7.73,0,0,1,3.21.85,1,1,0,0,1,.62,1,3.13,3.13,0,0,1-.28,1.12,5.84,5.84,0,0,1-1.51,1.68c-.15.15-.26.26-.26.34s.11.17.35.3.41.2.6.31c1.62.77,3,1.48,3,3.23Zm-4-7.15a7,7,0,0,0-1-.07c-.5,0-1,.07-1.62.11a.74.74,0,0,0-.69.67,3.78,3.78,0,0,0-.06.62,6.21,6.21,0,0,0,.28,1.55.45.45,0,0,0,.45.39,1.38,1.38,0,0,0,.71-.26A6.88,6.88,0,0,0,187,97.83a.87.87,0,0,0,.18-.5C187.18,97,187,96.77,186.49,96.71Zm2,6.25a5.12,5.12,0,0,0-1.72-1,9.34,9.34,0,0,0-1.94-.36c-.54,0-.89.24-.91.8,0,1-.08,1.76-.08,2.58,0,.54,0,1.1.08,1.77,0,.47.22.6.46.6a1.76,1.76,0,0,0,.62-.17,8.62,8.62,0,0,0,3.53-2.15A1.5,1.5,0,0,0,189,104,1.22,1.22,0,0,0,188.47,103Z"/><path class="c" d="M193,96.92a2,2,0,0,1-.52.07,2.4,2.4,0,0,1-2.06-1.3.48.48,0,0,1-.09-.3c0-.28.24-.56.78-.56l.21,0a4.1,4.1,0,0,1,2.13.84.54.54,0,0,1,.26.48A.86.86,0,0,1,193,96.92Zm.39,10.37a1,1,0,0,1-.71-.22,4,4,0,0,1-1.17-2.45c0-.93,0-1.64,0-2.37v-.78c0-.47,0-1,0-1.57v0a.47.47,0,0,1,.52-.51c.51,0,1.25.47,1.23,1.08v0c0,1-.28,1.89-.28,2.73a3.72,3.72,0,0,0,.34,1.6,6.4,6.4,0,0,0,1.16,1.62.46.46,0,0,1,.13.3C194.52,107.07,193.92,107.29,193.36,107.29Z"/><path class="c" d="M203.38,106.23a5.75,5.75,0,0,1-1.32.15,20.82,20.82,0,0,1-3.72-.67l-.18,0c-.25,0-.53.11-.53.43a.94.94,0,0,0,.06.31,7.43,7.43,0,0,0,.65,1.29.49.49,0,0,1,.06.19c0,.22-.26.3-.56.3-.45,0-1.08-.19-1.18-.49a15,15,0,0,1-1.23-4.72c-.28-3.32,0-6.7-1.55-8.41a.61.61,0,0,1-.16-.45,1.1,1.1,0,0,1,1-1.1,1,1,0,0,1,.45.13c1.57.93,1.05,2.72,1.36,4.53.23,1.42.13,2.24.26,3.68,0,.39.21.52.43.52a.88.88,0,0,0,.54-.26c1.2-1.2,2.6-2.61,3.57-2.58h0a.86.86,0,0,1,.82,1c0,.49-.25,1-.64,1-.13,0-.3-.09-.48-.09a1.22,1.22,0,0,0-.66.32,23.09,23.09,0,0,0-1.88,1.62c-.28.26-.39.39-.39.47s.2.18.46.31a11.31,11.31,0,0,0,4.52,1.29h.09a.54.54,0,0,1,.58.6A.71.71,0,0,1,203.38,106.23Z"/><path class="c" d="M213.48,107.57a6.8,6.8,0,0,1-3.49.8,7.29,7.29,0,0,1-2.32-.33c-1.86-.6-3.8-1.55-3.8-3.42a2,2,0,0,1,0-.54c.38-2.07,1.53-3,3.19-4a6.33,6.33,0,0,1,3.29-1.17,3.82,3.82,0,0,1,1.83.48,1.61,1.61,0,0,1,.93,1.46,1.89,1.89,0,0,1-.62,1.38c-1.3,1.27-2.5,1.1-4.1,1.81a4.09,4.09,0,0,1-1.57.41,1.1,1.1,0,0,1-.93-.37.36.36,0,0,0-.23-.15c-.2,0-.22.37-.22.54,0,1.4,1.75,2,3.08,2.33a8.37,8.37,0,0,0,2.05.28,13.53,13.53,0,0,0,2.43-.28l.13,0a.47.47,0,0,1,.48.49A.41.41,0,0,1,213.48,107.57Zm-2.58-7.29a8.14,8.14,0,0,0-5,2.29.63.63,0,0,0-.19.41c0,.13.06.21.19.21a.78.78,0,0,0,.26-.06c1.17-.48,3.36-.43,5.09-1.73a.53.53,0,0,0,.25-.47A.68.68,0,0,0,210.9,100.28Z"/><path class="c" d="M227.64,100.76c-.8,1-1.19,1.7-2.07,2.71-.19.22-.41.35-.41.5s.09.24.32.41a4.29,4.29,0,0,1,1,.9.4.4,0,0,1,.07.24,1.39,1.39,0,0,1-.61.91c-.21.13-.36.15-.56-.13s-.6-.54-1-1.06a.65.65,0,0,0-.51-.34.53.53,0,0,0-.35.13,19.37,19.37,0,0,1-2.07,1.46,3.51,3.51,0,0,1-1.7.45,1.82,1.82,0,0,1-2-1.72,2,2,0,0,1,.23-.93,12.7,12.7,0,0,1,2.68-3.7.44.44,0,0,0,.11-.28c0-.24-.13-.5-.16-.8,0-.67-.19-1.14-.19-1.68a2.16,2.16,0,0,1,.11-.73c.39-1.21,1.08-2.4,2.28-2.4.8,0,1.88.5,1.88,1.55a2.64,2.64,0,0,1-.41,1.32c-.54.9-1,1.38-1.6,2.28-.13.2-.21.3-.21.46a1.93,1.93,0,0,0,.17.53,4.3,4.3,0,0,0,1.08,1.56.88.88,0,0,0,.58.32.73.73,0,0,0,.54-.32,14.24,14.24,0,0,0,2.07-3.19c.06-.15.15-.22.23-.22.28,0,.61.78.61,1.34A.66.66,0,0,1,227.64,100.76Zm-5,2.2a3.35,3.35,0,0,1-.69-1.12.33.33,0,0,0-.3-.2.7.7,0,0,0-.43.2,8.1,8.1,0,0,0-1.77,2.41,1.42,1.42,0,0,0-.15.62c0,.31.15.59.71.59a5.7,5.7,0,0,0,2.54-1.17c.33-.19.48-.39.48-.62A1,1,0,0,0,222.64,103Zm0-6.12a.66.66,0,0,0-.35.13c-.32.19-.34.51-.39.9v.07c0,.25.15.4.26.4a.08.08,0,0,0,.09-.08,1.92,1.92,0,0,1,.43-1,.48.48,0,0,0,.13-.32A.15.15,0,0,0,222.6,96.84Z"/><path class="c" d="M242.1,103.86c0,1.79-3.65,4.63-6.94,5.13a2.55,2.55,0,0,1-.39,0c-1,0-1.73-.56-1.73-1,0-.22.13-.41.44-.54a1,1,0,0,0,.56-1v-.58c0-3.41-.46-7.31-1.17-7.91a1.34,1.34,0,0,1-.45-1,.77.77,0,0,1,.32-.67,6.23,6.23,0,0,1,3.6-1.32,7.69,7.69,0,0,1,3.21.85,1,1,0,0,1,.63,1A3.13,3.13,0,0,1,239.9,98a5.84,5.84,0,0,1-1.51,1.68c-.15.15-.26.26-.26.34s.11.17.34.3l.61.31c1.61.77,3,1.48,3,3.23ZM238,96.71a6.81,6.81,0,0,0-1-.07c-.49,0-1,.07-1.61.11a.74.74,0,0,0-.69.67,3.91,3.91,0,0,0-.07.62,6.21,6.21,0,0,0,.28,1.55.46.46,0,0,0,.46.39,1.38,1.38,0,0,0,.71-.26,6.88,6.88,0,0,0,2.41-1.89.86.86,0,0,0,.17-.5C238.73,97,238.54,96.77,238,96.71Zm2,6.25a5.16,5.16,0,0,0-1.73-1,9.11,9.11,0,0,0-1.94-.36c-.53,0-.88.24-.9.8,0,1-.09,1.76-.09,2.58a16.5,16.5,0,0,0,.09,1.77c0,.47.21.6.45.6a1.65,1.65,0,0,0,.62-.17,8.65,8.65,0,0,0,3.54-2.15,1.55,1.55,0,0,0,.5-1.06A1.25,1.25,0,0,0,240,103Z"/><path class="c" d="M249.72,104.77c-.62,1.59-1.83,2.86-3.45,2.86a3.58,3.58,0,0,1-2.67-1.27,3.39,3.39,0,0,1-.9-2.18,4,4,0,0,1,2.19-3.51,7.87,7.87,0,0,0,1.88-1.36,1.53,1.53,0,0,1,1.1-.53,1.09,1.09,0,0,1,1,.73c.41,1.16,1.19,2.24,1.19,3.55A4.52,4.52,0,0,1,249.72,104.77Zm-1.33-3c-.07-.11-.13-.15-.18-.15s-.38.43-.77.43a.8.8,0,0,1-.5-.19c-.17-.13-.3-.28-.54-.28a1.83,1.83,0,0,0-.86.38,2.14,2.14,0,0,0-1.1,1.9,2,2,0,0,0,.63,1.73,2.36,2.36,0,0,0,1.44.47,2.32,2.32,0,0,0,2-1.32,2.45,2.45,0,0,0,.34-1.31A3.14,3.14,0,0,0,248.39,101.77Z"/><path class="c" d="M261.4,108a.37.37,0,0,1-.28-.11,6.62,6.62,0,0,1-2.16-3.87c-.12-.52-.38-.72-.62-.72a.89.89,0,0,0-.63.33,14.11,14.11,0,0,1-3.79,3.19,3.28,3.28,0,0,1-1.55.47,2.2,2.2,0,0,1-2.11-2.3,2.17,2.17,0,0,1,.34-1.19,10.71,10.71,0,0,1,4.79-3.71,3.58,3.58,0,0,1,1.4-.38,1.29,1.29,0,0,1,.92.34,1.09,1.09,0,0,0,.63.37c.17,0,.34-.11.58-.41a.6.6,0,0,1,.45-.24,1.2,1.2,0,0,1,1,.71c.69,1.55-.21,5.24,1.81,5.82.18,0,.24.19.24.39C262.39,107.22,261.9,108,261.4,108Zm-5.52-6.33a.87.87,0,0,0-.32.1,9.69,9.69,0,0,0-3.4,2.68.67.67,0,0,0-.16.45.77.77,0,0,0,.87.75h0c1,0,1.85-1.51,3.36-2,.13,0,.24-.43.24-.86S256.31,101.71,255.88,101.71Z"/><path class="c" d="M267.9,101.94a.51.51,0,0,1-.23,0,1.7,1.7,0,0,0-.63-.15.75.75,0,0,0-.66.41c-.95,1.42-.59,2.63-1.23,4.2a.86.86,0,0,1-.8.52.77.77,0,0,1-.75-.58c-.26-1-.46-1.58-.78-2.59s-1.21-2-1.21-2.84a1.26,1.26,0,0,1,.05-.33.73.73,0,0,1,.73-.47.77.77,0,0,1,.49.15c1.15.86.91,1.14,1.17,2.39a.41.41,0,0,0,.39.32c.13,0,.28-.08.38-.32.48-1,.09-2.22,1.49-2.52a3.5,3.5,0,0,1,.62-.06,1.88,1.88,0,0,1,1.38.51.83.83,0,0,1,.2.58C268.51,101.53,268.31,101.94,267.9,101.94Z"/><path class="c" d="M279.89,106.83a1.79,1.79,0,0,1-.65.13,1.33,1.33,0,0,1-.95-.38c-.82-.82-.86-1.6-1.38-2.63a.78.78,0,0,0-.64-.37.58.58,0,0,0-.48.28,7.39,7.39,0,0,1-3.4,3.28,4.53,4.53,0,0,1-1.9.47,1.85,1.85,0,0,1-2.07-1.74,1.47,1.47,0,0,1,.35-1c1.79-2.27,4.31-3.5,6.33-4.66.26-.15.56-.32.56-.62v0a22.77,22.77,0,0,0-.47-3.74v-.09a.54.54,0,0,1,.56-.52.85.85,0,0,1,.52.22,4,4,0,0,1,1.42,2.93c0,1.89.15,6.55,2.37,7.54.26.13.36.26.36.39S280.17,106.73,279.89,106.83Zm-4.68-5.1a.71.71,0,0,0-.28.06,18.31,18.31,0,0,0-4.7,3.36.68.68,0,0,0,.58,1.1,1.74,1.74,0,0,0,.67-.15c2-.77,2.91-2.41,4-3.66a.59.59,0,0,0,.17-.39C275.62,101.84,275.43,101.73,275.21,101.73Z"/><rect class="b" x="410.18" y="90.33" width="62.56" height="18.07"/><path class="b" d="M381.8,91.73h-1.72V90.34H385v1.39h-1.71v8.94H381.8Z"/><path class="b" d="M385.38,92.78a2.48,2.48,0,1,1,5,0v5.45a2.48,2.48,0,1,1-5,0Zm1.48,5.45a1,1,0,1,0,2,0V92.78a1,1,0,1,0-2,0Z"/><path class="b" d="M392.45,91.73h-1.71V90.34h4.9v1.39h-1.71v8.94h-1.48Z"/><path class="b" d="M397.14,90.34h1.23l2.31,10.33H399.2l-.44-2.22h-2l-.43,2.22h-1.48Zm.62,3h0L397,97.06h1.48Z"/><path class="b" d="M401.4,90.34h1.48v8.85h2.93v1.48H401.4Z"/><path class="b" d="M381.82,102.93H383v3.42h1.41v-3.42h1.14v8h-1.14v-3.55H383v3.55h-1.14Z"/><path class="b" d="M386.59,102.93H390V104h-2.26v2.35h2v1.07h-2v2.34H390v1.14h-3.4Z"/><path class="b" d="M390.77,102.93h1.14v8h-1.14Z"/><path class="b" d="M393,104.81a1.92,1.92,0,1,1,3.83,0v.4h-1.14v-.4a.78.78,0,1,0-1.55,0V109a.78.78,0,1,0,1.55,0v-1.5h-.91v-1h2V109a1.92,1.92,0,1,1-3.83,0Z"/><path class="b" d="M397.79,102.93h1.14v3.42h1.41v-3.42h1.14v8h-1.14v-3.55h-1.41v3.55h-1.14Z"/><path class="b" d="M403.31,104H402v-1.07h3.78V104h-1.32v6.9h-1.14Z"/><path class="c" d="M422.92,97.25c-.65,1.74-2.74,2.28-3.66,3.65a1.49,1.49,0,0,0-.3.8.61.61,0,0,0,.13.41,4.6,4.6,0,0,1,1.18,2.45,3.68,3.68,0,0,1-.92,2.06,2.4,2.4,0,0,1-2,1,3.62,3.62,0,0,1-2.41-1,1.24,1.24,0,0,1-.41-1,6.31,6.31,0,0,1,1-2.56c.43-.86,1-1.24,1-1.78a1.27,1.27,0,0,0-.38-.8,4,4,0,0,1-1.1-2.53,2.74,2.74,0,0,1,.62-1.72,5.65,5.65,0,0,1,2.63-1.72,1.49,1.49,0,0,1,.64-.11,2.49,2.49,0,0,1,2.15,1.27.48.48,0,0,1,.07.26c0,.34-.26.73-.52.73a.25.25,0,0,1-.15,0,4.16,4.16,0,0,0-1.7-.64,1.62,1.62,0,0,0-.84.3c-.92.62-1.27,1.23-1.27,1.83a2.31,2.31,0,0,0,.63,1.44c.24.3.38.39.49.39s.24-.18.41-.26c1.53-.73,2.6-2.67,4-3.44a1.1,1.1,0,0,1,.49-.18c.24,0,.35.18.35.46A2.2,2.2,0,0,1,422.92,97.25Zm-4.05,7a2.64,2.64,0,0,0-.77-1.33.66.66,0,0,0-.49-.28.5.5,0,0,0-.41.23,12.17,12.17,0,0,0-1.34,2.37.58.58,0,0,0-.06.26.72.72,0,0,0,.71.68,1.38,1.38,0,0,0,.34,0,2.63,2.63,0,0,0,1.51-.54,1.12,1.12,0,0,0,.56-1A1.27,1.27,0,0,0,418.87,104.3Z"/><path class="c" d="M424.68,98.69a.65.65,0,0,1-.26.06.58.58,0,0,1-.52-.62.83.83,0,0,1,.26-.6c.95-1,.88-2.76,1.1-4.39a.81.81,0,0,1,.88-.62c.43,0,.86.23.86.68C427,95.61,426.7,97.68,424.68,98.69Z"/><line class="d" x1="372.79" y1="81.42" x2="372.79" y2="120.12"/><path class="b" d="M410.15,108.92h.33c.52,0,.66.49.66,1s-.13,1-.64,1h-.35Zm.28,1.75c.33,0,.42-.33.42-.76s-.14-.76-.42-.76Z"/><path class="b" d="M411.43,108.92h.44a.5.5,0,0,1,.52.54.52.52,0,0,1-.34.5l.4,1h-.32l-.36-.91h-.07v.91h-.27Zm.27.84c.27,0,.4-.08.4-.32a.28.28,0,0,0-.3-.29h-.1Z"/><path class="b" d="M412.7,108.92H413v2h-.28Z"/><path class="b" d="M413.51,108.92l.21,1.4h0l.2-1.4h.28l-.36,2h-.26l-.37-2Z"/><path class="b" d="M415.14,108.92v.23h-.45v.58h.45V110h-.45v.7h.45v.24h-.72v-2Z"/><path class="b" d="M417,110.42c0,.41-.2.53-.47.53s-.48-.12-.48-.53v-1.5h.28v1.49c0,.13,0,.29.2.29s.19-.16.19-.29v-1.49H417Z"/><path class="b" d="M417.55,108.92l.4,1.26h0v-1.26h.26v2H418l-.41-1.26h0v1.26h-.26v-2Z"/><path class="b" d="M418.52,108.92h.33c.52,0,.66.49.66,1s-.13,1-.64,1h-.35Zm.28,1.75c.33,0,.42-.33.42-.76s-.14-.76-.42-.76Z"/><path class="b" d="M420.51,108.92v.23h-.45v.58h.45V110h-.45v.7h.45v.24h-.73v-2Z"/><path class="b" d="M420.75,108.92h.45a.5.5,0,0,1,.51.54.5.5,0,0,1-.34.5l.4,1h-.31l-.37-.91H421v.91h-.28Zm.28.84c.27,0,.39-.08.39-.32a.28.28,0,0,0-.3-.29H421Z"/><path class="b" d="M422.8,109.16h-.35v-.24h1v.24h-.35v1.75h-.28Z"/><path class="b" d="M423.64,108.92h.28v.81h.4v-.81h.27v2h-.27V110h-.4v.94h-.28Z"/><path class="b" d="M424.93,108.92h.28v2h-.28Z"/><path class="b" d="M425.82,108.92l.41,1.26h0v-1.26h.27v2h-.28l-.4-1.26h0v1.26h-.26v-2Z"/><path class="b" d="M427.48,109.42c0-.19-.09-.3-.2-.3s-.24.2-.24.84c0,.4,0,.74.24.74s.23-.28.24-.69h-.29v-.25h.56V110c0,.48-.09,1-.51,1s-.53-.52-.53-1,.1-1,.53-1,.41.19.47.45Z"/><path class="b" d="M428.65,109.4c0-.15-.06-.28-.2-.28s-.17.1-.17.21a.51.51,0,0,0,.18.36l.23.22a.67.67,0,0,1,.25.54.46.46,0,0,1-.48.5.48.48,0,0,1-.49-.48l.27-.08c0,.18.08.32.22.32a.21.21,0,0,0,.2-.24.54.54,0,0,0-.2-.38l-.21-.21a.71.71,0,0,1-.25-.53.45.45,0,0,1,.44-.48.43.43,0,0,1,.46.44Z"/><path class="b" d="M430.31,108.92l.45,2h-.29l-.08-.41H430l-.08.41h-.26l.42-2Zm0,1.36-.18-.92h0l-.17.92Z"/><path class="b" d="M431.08,109.16h-.35v-.24h1v.24h-.36v1.75h-.27Z"/><path class="b" d="M432.66,108.92l.22.83h0l.21-.83h.28L433,110.1v.81h-.27v-.81l-.37-1.18Z"/><path class="b" d="M434,108.87c.48,0,.53.53.53,1s-.1,1-.53,1-.53-.52-.53-1S433.52,108.87,434,108.87Zm0,1.83c.19,0,.24-.34.24-.85s-.11-.73-.24-.73-.24.2-.24.84C433.71,110.36,433.75,110.7,434,110.7Z"/><path class="b" d="M435.68,110.42c0,.41-.21.53-.48.53s-.47-.12-.47-.53v-1.5H435v1.49c0,.13,0,.29.2.29s.2-.16.2-.29v-1.49h.28Z"/><path class="b" d="M436,108.92h.45a.5.5,0,0,1,.52.54.51.51,0,0,1-.35.5l.41,1h-.32l-.37-.91h-.06v.91H436Zm.28.84c.27,0,.4-.08.4-.32a.28.28,0,0,0-.31-.29h-.09Z"/><path class="b" d="M438.36,108.87c.47,0,.53.53.53,1s-.1,1-.53,1-.53-.52-.53-1S437.93,108.87,438.36,108.87Zm0,1.83c.19,0,.23-.34.23-.85s-.1-.73-.23-.73-.24.2-.24.84C438.12,110.36,438.16,110.7,438.36,110.7Z"/><path class="b" d="M440.65,108.92l-.35,2H440l-.2-1.41h0l-.19,1.41h-.27l-.34-2h.29l.19,1.4h0l.18-1.4H440l.18,1.4h0l.2-1.4Z"/><path class="b" d="M441.12,108.92l.41,1.26h0v-1.26h.26v2h-.27l-.41-1.26h0v1.26h-.27v-2Z"/><path class="b" d="M442.76,108.92h.45a.5.5,0,0,1,.52.54.51.51,0,0,1-.35.5l.41,1h-.32l-.36-.91H443v.91h-.28Zm.28.84c.27,0,.4-.08.4-.32a.28.28,0,0,0-.3-.29H443Z"/><path class="b" d="M444,108.92h.27v2H444Z"/><path class="b" d="M445.25,109.4c0-.15-.06-.28-.2-.28a.19.19,0,0,0-.18.21.53.53,0,0,0,.19.36l.22.22a.67.67,0,0,1,.25.54.46.46,0,0,1-.48.5.47.47,0,0,1-.48-.48l.26-.08c0,.18.09.32.22.32a.21.21,0,0,0,.21-.24.54.54,0,0,0-.2-.38l-.22-.21a.74.74,0,0,1-.24-.53.45.45,0,0,1,.44-.48.43.43,0,0,1,.46.44Z"/><path class="b" d="M446,108.92v.9h0l.43-.9h.3l-.48.93.51,1.06h-.31l-.45-1h0v1h-.28v-2Z"/><path class="b" d="M447.18,110.6a.17.17,0,0,1,.17.16.18.18,0,0,1-.17.17.17.17,0,0,1-.16-.17A.16.16,0,0,1,447.18,110.6Z"/><path class="b" d="M449.24,108.87a1,1,0,1,1-1,1A1,1,0,0,1,449.24,108.87Zm0,1.88a.84.84,0,1,0-.84-.84A.84.84,0,0,0,449.24,110.75Zm.36-1a.33.33,0,0,0-.33-.26.41.41,0,0,0-.4.46.43.43,0,0,0,.4.47.32.32,0,0,0,.33-.28h.19a.52.52,0,0,1-.51.45.6.6,0,0,1-.61-.64.59.59,0,0,1,.6-.63.49.49,0,0,1,.52.43Z"/><path class="b" d="M452,110.91h-.93l.46-.88a1.67,1.67,0,0,0,.2-.58c0-.12-.06-.23-.17-.23s-.18.13-.19.34h-.27c0-.32.11-.59.47-.59a.44.44,0,0,1,.45.46,1.81,1.81,0,0,1-.28.76l-.26.47H452Z"/><path class="b" d="M452.18,109.93c0-.49,0-1,.45-1s.46.47.46,1-.06,1-.46,1S452.18,110.52,452.18,109.93Zm.27,0c0,.55,0,.76.18.76s.18-.17.18-.76,0-.71-.18-.71S452.45,109.38,452.45,109.93Z"/><path class="b" d="M453.49,110.91v-1.53a.82.82,0,0,1-.25.16v-.25a1.77,1.77,0,0,0,.47-.32h.06v1.94Z"/><path class="b" d="M454.2,110.91a5.93,5.93,0,0,0,.39-.67h0a.33.33,0,0,1-.15,0c-.17,0-.36-.14-.36-.65,0-.3.12-.65.47-.65s.46.26.46.65a2.39,2.39,0,0,1-.49,1.29Zm.54-1.28c0-.17-.05-.42-.2-.42s-.18.15-.18.42.05.41.17.41S454.74,109.84,454.74,109.63Z"/><path class="b" d="M455.89,108.92h.32c.53,0,.67.49.67,1s-.13,1-.64,1h-.35Zm.28,1.75c.33,0,.42-.33.42-.76s-.14-.76-.42-.76Z"/><path class="b" d="M457.62,108.87c.48,0,.53.53.53,1s-.1,1-.53,1-.52-.52-.52-1S457.19,108.87,457.62,108.87Zm0,1.83c.2,0,.24-.34.24-.85s-.1-.73-.24-.73-.23.2-.23.84C457.39,110.36,457.43,110.7,457.62,110.7Z"/><path class="b" d="M458.88,108.87c.47,0,.53.53.53,1s-.1,1-.53,1-.53-.52-.53-1S458.45,108.87,458.88,108.87Zm0,1.83c.19,0,.23-.34.23-.85s-.1-.73-.23-.73-.24.2-.24.84C458.64,110.36,458.68,110.7,458.88,110.7Z"/><path class="b" d="M460.38,108.92v.23h-.45v.58h.45V110h-.45v.94h-.27v-2Z"/><path class="b" d="M461.21,109.4c0-.15-.06-.28-.2-.28a.19.19,0,0,0-.18.21.49.49,0,0,0,.19.36l.22.22a.67.67,0,0,1,.25.54.46.46,0,0,1-.48.5.47.47,0,0,1-.48-.48l.26-.08c0,.18.08.32.22.32a.21.21,0,0,0,.2-.24.52.52,0,0,0-.19-.38l-.22-.21a.7.7,0,0,1-.24-.53.45.45,0,0,1,.44-.48.43.43,0,0,1,.46.44Z"/><path class="b" d="M462,109.16h-.36v-.24h1v.24h-.35v1.75H462Z"/><path class="b" d="M462.85,108.92h.28v2h-.28Z"/><path class="b" d="M464.18,109.42c0-.21-.11-.3-.2-.3s-.27.38-.27.77,0,.81.26.81.22-.19.25-.39l.26.1c0,.3-.19.54-.52.54s-.54-.29-.54-1c0-.39.05-1,.56-1,.24,0,.4.15.48.46Z"/><path class="b" d="M465,108.92v.9h0l.44-.9h.3l-.48.93.51,1.06h-.31l-.46-1h0v1h-.28v-2Z"/><path class="b" d="M466.7,108.92v.23h-.45v.58h.45V110h-.45v.7h.45v.24H466v-2Z"/><path class="b" d="M467,108.92h.44a.5.5,0,0,1,.52.54.52.52,0,0,1-.34.5l.4,1h-.32l-.36-.91h-.07v.91H467Zm.27.84c.27,0,.4-.08.4-.32a.28.28,0,0,0-.3-.29h-.1Z"/><path class="b" d="M468.36,110.6a.16.16,0,0,1,.16.16.17.17,0,0,1-.16.17.18.18,0,0,1-.17-.17A.17.17,0,0,1,468.36,110.6Z"/><path class="b" d="M469.55,109.42c0-.21-.11-.3-.21-.3s-.27.38-.27.77.05.81.27.81.22-.19.24-.39l.27.1c0,.3-.19.54-.52.54s-.55-.29-.55-1c0-.39.06-1,.57-1,.23,0,.4.15.47.46Z"/><path class="b" d="M470.57,108.87c.47,0,.52.53.52,1s-.1,1-.52,1-.53-.52-.53-1S470.13,108.87,470.57,108.87Zm0,1.83c.19,0,.23-.34.23-.85s-.1-.73-.23-.73-.24.2-.24.84C470.33,110.36,470.37,110.7,470.57,110.7Z"/><path class="b" d="M471.64,108.92l.4,1.33h0l.4-1.33h.3v2h-.27v-1.33h0l-.33,1.13h-.21l-.33-1.13h0v1.33h-.27v-2Z"/><path class="e" d="M499.26,57.24,459.91,81.5l-14.53,25.75a29.09,29.09,0,0,0,5.1,3.65c4,2.49,9.59,1.12,12.77-2.86s4.49-5.67,4.49-5.67l1.56-.82-6.57,11.55a25.48,25.48,0,0,0,5.54,4.35c3.33,1.93,7.26-.25,10.1-4.4s3.33-6.53,3.33-6.53l26.54,2,15.2,7.17s9.17,7.86,19.81,9c10,1.1,14.52-4.12,14.52-4.12L525.45,46.75Z"/><path class="f" d="M499.36,57.07,495,54.8l-22.45,8.36s-.08.47-3.55,7.09c-4.53,8.64-22.93,16.7-25.44,4.81l14.95-24.35L495.09,32l47.79,5.49Z"/><path class="g" d="M439.22,90.54,438,92.45a11.5,11.5,0,0,1-3.57,3.44l-3.11,1.89,4.78,7.83,3.1-1.89a11.43,11.43,0,0,1,4.7-1.6l2.27-.26a9.82,9.82,0,0,0,4-1.35l54.73-33.37L497,54.27,442.25,87.64A9.64,9.64,0,0,0,439.22,90.54Z"/><path class="g" d="M431.71,98.5l3.89,6.37-8.72,1.69a.68.68,0,0,1-.66-1.09Z"/><rect class="b" x="466.02" y="47.09" width="87.45" height="16.45" transform="translate(45.7 273.4) rotate(-31.36)"/><path class="f" d="M513.06,62.93l1.39.58,8.24,13.57s-36.77,2.4-50.63,2.53c-15.23.14-12,19.87,5.07,20.41,11.05.35,48.75,2.51,48.75,2.51,8.81,15.72,25.17,19.72,40.7,17.54L612,160l37.38-25.34L546.58,42.5Z"/><path class="b" d="M479.91,82.45,479.67,94s-10.52,1.93-12.75-4.8C463.57,79.1,479.91,82.45,479.91,82.45Z"/><path class="b" d="M452.14,61.15l3.11,0s-4.8,12.59-10.35,11.75Z"/><path class="g" d="M592.9,10.57l-15.29,13.6a76.26,76.26,0,0,1-7.29,5L539.87,47.78,530.24,32l30.45-18.56a75.19,75.19,0,0,1,7.83-4.16l19.1-7.36a3.29,3.29,0,0,1,4.19,1.28l1.87,3.07A3.29,3.29,0,0,1,592.9,10.57Z"/></svg>