<svg xmlns="http://www.w3.org/2000/svg" viewBox="0 0 612 160"><defs><style>.a{fill:#e92829;}.b{fill:#fff;}.c{fill:#010101;}.d{fill:none;stroke:#fff;stroke-width:0.67px;}.e{fill:#33bad1;}.f{fill:#bfe6ed;}.g{fill:#2d1347;}</style></defs><title>doof</title><rect class="a" x="16.94" y="53.41" width="449.85" height="37.49"/><path class="b" d="M25.15,62.05h4.24c3.24,0,5,1.94,5,5.17v9.37c0,3.71-1.92,5.48-5.29,5.48h-4ZM28,79.37h1.33c1.6,0,2.22-.79,2.22-2.5V67.22c0-1.57-.54-2.47-2.22-2.47H28Z"/><path class="b" d="M36.53,66.77a4.81,4.81,0,1,1,9.62,0V77.35a4.81,4.81,0,1,1-9.62,0ZM39.4,77.35a1.94,1.94,0,1,0,3.88,0V66.77a1.94,1.94,0,1,0-3.88,0Z"/><path class="b" d="M48.14,62.05H50.9l4.33,12.06h.06V62.05h2.87v20h-2.7L51.07,70H51v12H48.14Z"/><path class="b" d="M60.15,62.05H63v2.87L60.15,67Z"/><path class="b" d="M67,64.75H63.69v-2.7H73.2v2.7H69.88V82.07H67Z"/><path class="b" d="M78.85,62.05H83c3.71,0,5.08,2.45,5.08,5.06v.73a3.65,3.65,0,0,1-2,3.71c1.35.65,2,1.86,2,3.94v1.13c0,3.48-1.65,5.45-5.37,5.45h-3.9Zm2.86,8.21H83c1.91,0,2.42-1,2.42-2.81s-.65-2.7-2.54-2.7H81.71Zm0,8.94H83c2.31,0,2.48-1.4,2.48-3.37s-.37-3-2.45-3H81.71Z"/><path class="b" d="M90.4,62.05H99v2.7H93.27v5.88h5v2.7h-5V79.2H99v2.87H90.4Z"/><path class="b" d="M108.37,62.05h2.39l4.47,20h-2.87l-.84-4.3h-3.91l-.85,4.3H103.9Zm1.21,5.76h-.06l-1.41,7.26H111Z"/><path class="b" d="M121,62.05h4.24c3.24,0,5,1.94,5,5.17v9.37c0,3.71-1.91,5.48-5.29,5.48h-4Zm2.87,17.32h1.32c1.6,0,2.22-.79,2.22-2.5V67.22c0-1.57-.53-2.47-2.22-2.47h-1.32Z"/><path class="b" d="M132.4,66.77a4.81,4.81,0,1,1,9.62,0V77.35a4.81,4.81,0,1,1-9.62,0Zm2.87,10.58a1.94,1.94,0,1,0,3.88,0V66.77a1.94,1.94,0,1,0-3.88,0Z"/><path class="b" d="M144,66.77a4.81,4.81,0,1,1,9.62,0V77.35a4.81,4.81,0,1,1-9.62,0Zm2.87,10.58a1.94,1.94,0,1,0,3.88,0V66.77a1.94,1.94,0,1,0-3.88,0Z"/><path class="b" d="M155.68,62.05h8.55v2.7h-5.68v6.07h4.95v2.7h-4.95v8.55h-2.87Z"/><path class="b" d="M162.38,79.2h2.87v2.87l-2.87,2.08Z"/><path class="b" d="M281.29,66.77a4.81,4.81,0,1,1,9.62,0V77.35a4.81,4.81,0,1,1-9.62,0Zm2.87,10.58a1.94,1.94,0,1,0,3.88,0V66.77a1.94,1.94,0,1,0-3.88,0Z"/><path class="b" d="M292.9,62.05h2.76L300,74.11h.06V62.05h2.87v20h-2.71l-4.38-12h-.06v12H292.9Z"/><path class="b" d="M309.88,62.05h4.62c3.4,0,5.06,2,5.06,5.88,0,2.3-.65,4-2.48,5l3.1,9.14h-3l-2.67-8.55h-1.72v8.55h-2.87ZM312.75,71h1.63c2,0,2.31-1.12,2.31-3.12s-.34-3.12-2.45-3.12h-1.49Z"/><path class="b" d="M321.27,66.77a4.81,4.81,0,1,1,9.62,0V77.35a4.81,4.81,0,1,1-9.62,0Zm2.87,10.58a1.94,1.94,0,1,0,3.88,0V66.77a1.94,1.94,0,1,0-3.88,0Z"/><path class="b" d="M332.83,66.77a4.81,4.81,0,1,1,9.62,0V77.35a4.81,4.81,0,1,1-9.62,0Zm2.87,10.58a1.94,1.94,0,1,0,3.88,0V66.77a1.94,1.94,0,1,0-3.88,0Z"/><path class="b" d="M344.55,62.05h8.55v2.7h-5.68v6.07h4.95v2.7h-4.95v8.55h-2.87Z"/><rect class="b" x="172.84" y="62.05" width="101.51" height="20.02"/><path class="c" d="M185.1,75.16c0,1.73-3.53,4.49-6.72,5a2.42,2.42,0,0,1-.38,0c-.94,0-1.67-.55-1.67-1a.59.59,0,0,1,.42-.52,1,1,0,0,0,.54-1V77.1c0-3.3-.44-7.08-1.12-7.66a1.27,1.27,0,0,1-.44-.94.74.74,0,0,1,.31-.65,6,6,0,0,1,3.49-1.27,7.6,7.6,0,0,1,3.11.81,1,1,0,0,1,.6,1,2.91,2.91,0,0,1-.27,1.09,5.61,5.61,0,0,1-1.46,1.63c-.15.14-.25.25-.25.33s.1.17.33.29.4.19.59.29c1.56.76,2.88,1.45,2.92,3.14Zm-3.92-6.93a8.32,8.32,0,0,0-.94-.06c-.48,0-.94.06-1.57.1-.42,0-.58.29-.67.65a3.57,3.57,0,0,0-.06.6,5.81,5.81,0,0,0,.27,1.5.44.44,0,0,0,.44.38,1.35,1.35,0,0,0,.69-.25,6.7,6.7,0,0,0,2.34-1.84.84.84,0,0,0,.16-.48C181.84,68.54,181.66,68.29,181.18,68.23Zm1.92,6a5,5,0,0,0-1.67-1,8.67,8.67,0,0,0-1.88-.35c-.52,0-.86.23-.88.77,0,1-.08,1.71-.08,2.5,0,.53,0,1.07.08,1.72,0,.45.21.58.44.58a1.56,1.56,0,0,0,.6-.17,8.39,8.39,0,0,0,3.43-2.08,1.5,1.5,0,0,0,.48-1A1.22,1.22,0,0,0,183.1,74.28Z"/><path class="c" d="M187.46,68.44a2.49,2.49,0,0,1-.5.06,2.36,2.36,0,0,1-2-1.25.56.56,0,0,1-.08-.3c0-.27.23-.54.75-.54l.21,0a4,4,0,0,1,2.06.82.51.51,0,0,1,.25.46A.85.85,0,0,1,187.46,68.44Zm.37,10a1,1,0,0,1-.69-.21A3.86,3.86,0,0,1,186,75.89c-.05-.9-.05-1.59-.05-2.3v-.75c0-.46,0-1,0-1.52v0a.47.47,0,0,1,.51-.51c.5,0,1.21.46,1.18,1v0c0,1-.27,1.84-.27,2.65a3.69,3.69,0,0,0,.34,1.55,5.79,5.79,0,0,0,1.12,1.56.48.48,0,0,1,.13.29C189,78.27,188.38,78.48,187.83,78.48Z"/><path class="c" d="M197.54,77.45a5.42,5.42,0,0,1-1.28.15,20.65,20.65,0,0,1-3.61-.65l-.16,0c-.25,0-.53.11-.53.42a.87.87,0,0,0,.07.29,6.61,6.61,0,0,0,.62,1.25.44.44,0,0,1,.07.19c0,.21-.26.29-.55.29s-1-.18-1.14-.48a14.24,14.24,0,0,1-1.19-4.57c-.28-3.21,0-6.49-1.51-8.14a.63.63,0,0,1-.14-.44,1.05,1.05,0,0,1,1-1.06.94.94,0,0,1,.43.12c1.53.9,1,2.63,1.32,4.39.23,1.38.13,2.17.25,3.57,0,.37.21.5.42.5a.87.87,0,0,0,.52-.25c1.17-1.17,2.53-2.53,3.46-2.51h0a.84.84,0,0,1,.79.94c0,.48-.25,1-.63,1-.12,0-.29-.08-.46-.08a1.15,1.15,0,0,0-.64.31,23.35,23.35,0,0,0-1.82,1.57c-.27.25-.38.37-.38.46s.19.16.44.29a11.1,11.1,0,0,0,4.39,1.25h.08a.52.52,0,0,1,.56.59A.68.68,0,0,1,197.54,77.45Z"/><path class="c" d="M207.33,78.75a6.64,6.64,0,0,1-3.39.77,7.2,7.2,0,0,1-2.25-.31c-1.8-.59-3.67-1.51-3.67-3.32a2.32,2.32,0,0,1,0-.52c.37-2,1.48-2.91,3.09-3.93a6.15,6.15,0,0,1,3.19-1.13,3.87,3.87,0,0,1,1.78.46,1.59,1.59,0,0,1,.89,1.42,1.83,1.83,0,0,1-.6,1.34c-1.25,1.23-2.42,1.06-4,1.75a4,4,0,0,1-1.52.4,1.07,1.07,0,0,1-.9-.36.35.35,0,0,0-.23-.14c-.19,0-.21.35-.21.52,0,1.36,1.69,1.92,3,2.26a8.22,8.22,0,0,0,2,.27,13.66,13.66,0,0,0,2.36-.27l.12,0a.45.45,0,0,1,.46.48A.39.39,0,0,1,207.33,78.75Zm-2.51-7.06a7.83,7.83,0,0,0-4.8,2.22.59.59,0,0,0-.19.39c0,.13.06.21.19.21a.74.74,0,0,0,.25-.06c1.13-.46,3.26-.42,4.93-1.67a.55.55,0,0,0,.25-.46A.66.66,0,0,0,204.82,71.69Z"/><path class="c" d="M221,72.15c-.78,1-1.15,1.65-2,2.63-.18.21-.39.34-.39.48s.08.23.31.4a3.86,3.86,0,0,1,.92.88.41.41,0,0,1,.06.23,1.3,1.3,0,0,1-.58.87c-.21.13-.36.15-.55-.12s-.58-.53-.94-1a.63.63,0,0,0-.5-.33.48.48,0,0,0-.33.13,17.69,17.69,0,0,1-2,1.41,3.37,3.37,0,0,1-1.65.44,1.77,1.77,0,0,1-1.92-1.67,1.79,1.79,0,0,1,.23-.89,12.25,12.25,0,0,1,2.58-3.6.34.34,0,0,0,.11-.27c0-.23-.13-.48-.15-.77,0-.65-.19-1.11-.19-1.63a2.09,2.09,0,0,1,.11-.71c.37-1.17,1-2.31,2.21-2.31.77,0,1.82.48,1.82,1.5a2.56,2.56,0,0,1-.4,1.27c-.52.88-1,1.34-1.54,2.22a.77.77,0,0,0-.21.43,2.05,2.05,0,0,0,.16.53,4.21,4.21,0,0,0,1.05,1.5.84.84,0,0,0,.56.31.66.66,0,0,0,.52-.31,13.38,13.38,0,0,0,2-3.09c.06-.15.14-.21.23-.21.27,0,.58.75.58,1.29A.67.67,0,0,1,221,72.15Zm-4.85,2.13a3.17,3.17,0,0,1-.66-1.08.32.32,0,0,0-.3-.19.63.63,0,0,0-.41.19,7.83,7.83,0,0,0-1.71,2.33,1.37,1.37,0,0,0-.15.61c0,.29.15.56.69.56a5.64,5.64,0,0,0,2.46-1.12c.31-.19.46-.38.46-.61A1,1,0,0,0,216.19,74.28Zm0-5.93a.61.61,0,0,0-.33.13c-.31.19-.34.5-.38.87v.07c0,.25.15.39.25.39a.08.08,0,0,0,.09-.08,1.87,1.87,0,0,1,.41-.92.44.44,0,0,0,.13-.31A.15.15,0,0,0,216.15,68.35Z"/><path class="c" d="M235,75.16c0,1.73-3.53,4.49-6.72,5a2.42,2.42,0,0,1-.38,0c-.94,0-1.67-.55-1.67-1a.59.59,0,0,1,.42-.52,1,1,0,0,0,.54-1V77.1c0-3.3-.44-7.08-1.12-7.66a1.27,1.27,0,0,1-.44-.94.74.74,0,0,1,.31-.65,6,6,0,0,1,3.49-1.27,7.6,7.6,0,0,1,3.11.81,1,1,0,0,1,.6,1,2.91,2.91,0,0,1-.27,1.09,5.61,5.61,0,0,1-1.46,1.63c-.15.14-.25.25-.25.33s.1.17.33.29.4.19.59.29c1.56.76,2.88,1.45,2.92,3.14Zm-3.92-6.93a8.32,8.32,0,0,0-.94-.06c-.48,0-.94.06-1.57.1-.42,0-.58.29-.67.65a3.57,3.57,0,0,0-.06.6,6.27,6.27,0,0,0,.27,1.5.44.44,0,0,0,.44.38,1.35,1.35,0,0,0,.69-.25,6.7,6.7,0,0,0,2.34-1.84.84.84,0,0,0,.16-.48C231.78,68.54,231.6,68.29,231.12,68.23Zm1.92,6a5,5,0,0,0-1.67-1,8.67,8.67,0,0,0-1.88-.35c-.52,0-.86.23-.88.77,0,1-.08,1.71-.08,2.5,0,.53,0,1.07.08,1.72,0,.45.21.58.44.58a1.56,1.56,0,0,0,.6-.17,8.39,8.39,0,0,0,3.43-2.08,1.5,1.5,0,0,0,.48-1A1.22,1.22,0,0,0,233,74.28Z"/><path class="c" d="M242.43,76c-.61,1.55-1.78,2.78-3.34,2.78a3.49,3.49,0,0,1-2.59-1.23,3.32,3.32,0,0,1-.88-2.11,3.82,3.82,0,0,1,2.13-3.4,7.86,7.86,0,0,0,1.82-1.32,1.48,1.48,0,0,1,1.06-.52,1,1,0,0,1,1,.71c.4,1.13,1.15,2.17,1.15,3.45A4.35,4.35,0,0,1,242.43,76Zm-1.3-2.9C241.07,73,241,73,241,73c-.19,0-.38.41-.76.41a.77.77,0,0,1-.47-.18.85.85,0,0,0-.53-.27,1.83,1.83,0,0,0-.83.37,2.06,2.06,0,0,0-1.07,1.84,2,2,0,0,0,.61,1.67,2.3,2.3,0,0,0,1.4.46A2.23,2.23,0,0,0,241.26,76a2.3,2.3,0,0,0,.33-1.27A3,3,0,0,0,241.13,73.13Z"/><path class="c" d="M253.74,79.21a.35.35,0,0,1-.27-.11,6.36,6.36,0,0,1-2.09-3.75c-.12-.51-.37-.69-.6-.69a.87.87,0,0,0-.61.31,13.87,13.87,0,0,1-3.67,3.09,3.23,3.23,0,0,1-1.51.46,2.13,2.13,0,0,1-2-2.23,2,2,0,0,1,.33-1.15,10.25,10.25,0,0,1,4.64-3.59,3.36,3.36,0,0,1,1.35-.38,1.26,1.26,0,0,1,.9.33,1,1,0,0,0,.61.36c.16,0,.33-.1.56-.4a.59.59,0,0,1,.44-.23,1.21,1.21,0,0,1,.94.69c.66,1.51-.21,5.07,1.75,5.64.17,0,.23.19.23.37C254.7,78.41,254.22,79.21,253.74,79.21Zm-5.34-6.14a.82.82,0,0,0-.32.1,9.59,9.59,0,0,0-3.29,2.59.64.64,0,0,0-.15.44.74.74,0,0,0,.83.73h0c1,0,1.8-1.46,3.26-1.92.13,0,.23-.42.23-.83S248.81,73.07,248.4,73.07Z"/><path class="c" d="M260,73.3a.53.53,0,0,1-.23,0,1.6,1.6,0,0,0-.6-.15.75.75,0,0,0-.65.4c-.92,1.38-.56,2.55-1.19,4.07a.84.84,0,0,1-.77.5.74.74,0,0,1-.73-.56c-.25-1-.44-1.53-.75-2.51S254,73.11,254,72.26a1.75,1.75,0,0,1,0-.32.71.71,0,0,1,.71-.46.81.81,0,0,1,.48.15c1.1.83.87,1.11,1.12,2.32a.42.42,0,0,0,.38.31c.13,0,.27-.08.38-.31.46-1,.08-2.15,1.44-2.45a3.21,3.21,0,0,1,.6-.06,1.85,1.85,0,0,1,1.34.5.85.85,0,0,1,.19.57C260.63,72.9,260.44,73.3,260,73.3Z"/><path class="c" d="M271.65,78a1.84,1.84,0,0,1-.63.12,1.27,1.27,0,0,1-.92-.37c-.79-.8-.83-1.55-1.33-2.55a.77.77,0,0,0-.63-.35.55.55,0,0,0-.46.27,7.13,7.13,0,0,1-3.3,3.17,4.35,4.35,0,0,1-1.84.46,1.79,1.79,0,0,1-2-1.69,1.45,1.45,0,0,1,.34-.94c1.73-2.19,4.17-3.38,6.13-4.51.25-.15.54-.31.54-.6v0a22.62,22.62,0,0,0-.45-3.63v-.08a.52.52,0,0,1,.54-.5.77.77,0,0,1,.5.21,3.85,3.85,0,0,1,1.38,2.84c0,1.83.14,6.34,2.29,7.3.25.13.36.25.36.38S271.92,77.93,271.65,78Zm-4.53-5a.63.63,0,0,0-.27.06,17.88,17.88,0,0,0-4.56,3.26.66.66,0,0,0-.14.42.63.63,0,0,0,.71.64,1.81,1.81,0,0,0,.65-.14c1.9-.75,2.81-2.34,3.84-3.55a.6.6,0,0,0,.16-.38C267.51,73.2,267.33,73.09,267.12,73.09Z"/><rect class="b" x="397.86" y="62.05" width="60.6" height="17.5"/><path class="b" d="M370.36,63.41h-1.65V62.06h4.75v1.35H371.8v8.65h-1.44Z"/><path class="b" d="M373.84,64.42a2.4,2.4,0,1,1,4.8,0V69.7a2.4,2.4,0,1,1-4.8,0Zm1.43,5.28a1,1,0,1,0,1.94,0V64.42a1,1,0,1,0-1.94,0Z"/><path class="b" d="M380.68,63.41H379V62.06h4.75v1.35h-1.66v8.65h-1.44Z"/><path class="b" d="M385.22,62.06h1.2l2.23,10h-1.43l-.42-2.15h-2l-.42,2.15H383Zm.61,2.88h0l-.7,3.63h1.43Z"/><path class="b" d="M389.36,62.06h1.43v8.57h2.84v1.43h-4.27Z"/><path class="b" d="M370.38,74.26h1.11v3.3h1.37v-3.3H374V82h-1.1V78.54h-1.37V82h-1.11Z"/><path class="b" d="M375,74.26h3.3v1h-2.19v2.26H378v1h-1.91v2.26h2.19V82H375Z"/><path class="b" d="M379.05,74.26h1.11V82h-1.11Z"/><path class="b" d="M381.17,76.08a1.86,1.86,0,1,1,3.71,0v.39h-1.11v-.39a.75.75,0,1,0-1.5,0v4.08a.75.75,0,1,0,1.5,0V78.7h-.88v-1h2v2.43a1.86,1.86,0,1,1-3.71,0Z"/><path class="b" d="M385.85,74.26H387v3.3h1.37v-3.3h1.1V82h-1.1V78.54H387V82h-1.11Z"/><path class="b" d="M391.2,75.3h-1.28v-1h3.67v1h-1.28V82H391.2Z"/><path class="c" d="M410.2,68.75c-.63,1.69-2.65,2.21-3.55,3.54a1.47,1.47,0,0,0-.29.77.58.58,0,0,0,.13.4,4.42,4.42,0,0,1,1.14,2.37,3.57,3.57,0,0,1-.89,2,2.32,2.32,0,0,1-1.92,1,3.49,3.49,0,0,1-2.33-1,1.21,1.21,0,0,1-.4-.94,6.07,6.07,0,0,1,1-2.47c.42-.84,1-1.21,1-1.73a1.22,1.22,0,0,0-.37-.77,3.92,3.92,0,0,1-1.07-2.46,2.66,2.66,0,0,1,.61-1.67,5.53,5.53,0,0,1,2.54-1.67,1.58,1.58,0,0,1,.62-.1,2.44,2.44,0,0,1,2.09,1.23.57.57,0,0,1,.06.25c0,.33-.25.71-.5.71a.37.37,0,0,1-.15,0,3.87,3.87,0,0,0-1.64-.63,1.6,1.6,0,0,0-.81.29c-.9.61-1.23,1.19-1.23,1.77a2.28,2.28,0,0,0,.6,1.4c.23.29.38.37.48.37s.23-.16.4-.25c1.47-.7,2.52-2.58,3.83-3.33a1.11,1.11,0,0,1,.48-.17c.23,0,.33.17.33.44A2,2,0,0,1,410.2,68.75Zm-3.92,6.83a2.6,2.6,0,0,0-.75-1.29.66.66,0,0,0-.48-.27.51.51,0,0,0-.4.23,12.4,12.4,0,0,0-1.29,2.29.57.57,0,0,0-.06.25.71.71,0,0,0,.69.67,1.94,1.94,0,0,0,.33,0,2.53,2.53,0,0,0,1.46-.52,1.09,1.09,0,0,0,.54-1A1.5,1.5,0,0,0,406.28,75.58Z"/><path class="c" d="M411.9,70.15a.57.57,0,0,1-.25.06.57.57,0,0,1-.5-.61.8.8,0,0,1,.25-.58c.92-1,.86-2.67,1.06-4.25a.8.8,0,0,1,.86-.6.74.74,0,0,1,.83.66C414.15,67.17,413.86,69.17,411.9,70.15Z"/><line class="d" x1="361.64" y1="53.42" x2="361.64" y2="90.91"/><path class="b" d="M397.83,80.05h.31c.51,0,.65.48.65,1s-.13,1-.63,1h-.33Zm.27,1.71c.32,0,.41-.33.41-.74s-.14-.74-.41-.74Z"/><path class="b" d="M399.06,80.05h.44a.49.49,0,0,1,.5.53.48.48,0,0,1-.33.48l.39.92h-.31l-.36-.88h-.06V82h-.27Zm.27.82c.26,0,.38-.08.38-.31a.27.27,0,0,0-.29-.28h-.09Z"/><path class="b" d="M400.3,80.05h.27V82h-.27Z"/><path class="b" d="M401.08,80.05l.21,1.36h0l.2-1.36h.27L401.42,82h-.26l-.36-1.93Z"/><path class="b" d="M402.67,80.05v.23h-.44v.57h.44v.22h-.44v.69h.44V82H402V80.05Z"/><path class="b" d="M404.43,81.51c0,.39-.19.51-.45.51s-.47-.12-.47-.51V80.05h.27V81.5c0,.13,0,.28.2.28s.19-.15.19-.28V80.05h.26Z"/><path class="b" d="M405,80.05l.39,1.23h0V80.05h.26V82h-.27L405,80.76h0V82h-.25V80.05Z"/><path class="b" d="M405.94,80.05h.31c.51,0,.65.48.65,1s-.13,1-.63,1h-.33Zm.27,1.71c.32,0,.41-.33.41-.74s-.14-.74-.41-.74Z"/><path class="b" d="M407.86,80.05v.23h-.43v.57h.43v.22h-.43v.69h.43V82h-.7V80.05Z"/><path class="b" d="M408.1,80.05h.43a.49.49,0,0,1,.5.53.48.48,0,0,1-.33.48l.39.92h-.31l-.35-.88h-.06V82h-.27Zm.27.82c.26,0,.38-.08.38-.31a.27.27,0,0,0-.29-.28h-.09Z"/><path class="b" d="M410.08,80.29h-.34v-.24h.95v.24h-.34V82h-.27Z"/><path class="b" d="M410.9,80.05h.27v.8h.38v-.8h.27V82h-.27v-.91h-.38V82h-.27Z"/><path class="b" d="M412.15,80.05h.27V82h-.27Z"/><path class="b" d="M413,80.05l.4,1.23h0V80.05h.26V82h-.27l-.4-1.22h0V82h-.26V80.05Z"/><path class="b" d="M414.62,80.54c0-.18-.09-.28-.2-.28s-.23.19-.23.8c0,.39,0,.72.23.72s.22-.26.23-.67h-.27v-.24h.54v.23c0,.46-.09.92-.5.92s-.51-.5-.51-1,.09-1,.51-1c.27,0,.4.18.46.43Z"/><path class="b" d="M415.75,80.52c0-.14-.06-.26-.19-.26a.18.18,0,0,0-.17.2.49.49,0,0,0,.18.34l.22.21a.68.68,0,0,1,.24.53.47.47,0,1,1-.93,0l.25-.08c0,.18.08.32.21.32a.22.22,0,0,0,.2-.24.55.55,0,0,0-.19-.37l-.21-.21a.68.68,0,0,1-.24-.51.44.44,0,0,1,.43-.46.41.41,0,0,1,.44.43Z"/><path class="b" d="M417.36,80.05l.43,1.93h-.28l-.08-.39H417l-.07.39h-.26l.41-1.93Zm0,1.32-.16-.88h0l-.17.88Z"/><path class="b" d="M418.1,80.29h-.34v-.24h.95v.24h-.34V82h-.27Z"/><path class="b" d="M419.63,80.05l.22.81h0l.2-.81h.27L420,81.21V82h-.27v-.77l-.35-1.16Z"/><path class="b" d="M420.88,80c.46,0,.51.51.51,1s-.09,1-.51,1-.51-.5-.51-1S420.46,80,420.88,80Zm0,1.77c.19,0,.23-.33.23-.82s-.1-.7-.23-.7-.23.19-.23.8C420.65,81.45,420.69,81.78,420.88,81.78Z"/><path class="b" d="M422.55,81.51c0,.39-.19.51-.45.51s-.47-.12-.47-.51V80.05h.27V81.5c0,.13,0,.28.2.28s.19-.15.19-.28V80.05h.26Z"/><path class="b" d="M422.86,80.05h.44a.48.48,0,0,1,.49.53.47.47,0,0,1-.33.48l.4.92h-.31l-.36-.88h-.06V82h-.27Zm.27.82c.26,0,.38-.08.38-.31a.27.27,0,0,0-.29-.28h-.09Z"/><path class="b" d="M425.15,80c.47,0,.51.51.51,1s-.09,1-.51,1-.51-.5-.51-1S424.74,80,425.15,80Zm0,1.77c.19,0,.23-.33.23-.82s-.1-.7-.23-.7-.23.19-.23.8C424.92,81.45,425,81.78,425.15,81.78Z"/><path class="b" d="M427.37,80.05,427,82h-.26l-.19-1.36h0L426.39,82h-.26l-.33-1.93h.29l.18,1.36h0l.18-1.36h.28l.17,1.36h0l.19-1.36Z"/><path class="b" d="M427.83,80.05l.39,1.23h0V80.05h.25V82h-.27l-.39-1.22h0V82h-.25V80.05Z"/><path class="b" d="M429.42,80.05h.43a.49.49,0,0,1,.5.53.48.48,0,0,1-.33.48l.39.92h-.3l-.36-.88h-.06V82h-.27Zm.27.82c.26,0,.38-.08.38-.31a.27.27,0,0,0-.29-.28h-.09Z"/><path class="b" d="M430.65,80.05h.27V82h-.27Z"/><path class="b" d="M431.83,80.52c0-.14-.06-.26-.2-.26a.18.18,0,0,0-.17.2.51.51,0,0,0,.19.34l.21.21a.65.65,0,0,1,.24.53.44.44,0,0,1-.46.48.45.45,0,0,1-.47-.46l.26-.08c0,.18.08.32.21.32a.22.22,0,0,0,.2-.24.55.55,0,0,0-.19-.37l-.21-.21a.65.65,0,0,1-.24-.51.43.43,0,0,1,.43-.46.41.41,0,0,1,.44.43Z"/><path class="b" d="M432.59,80.05v.88h0l.42-.88h.29l-.46.91.49,1H433l-.45-1h0v1h-.27V80.05Z"/><path class="b" d="M433.7,81.69a.16.16,0,0,1,.16.15.16.16,0,0,1-.16.16.16.16,0,1,1,0-.31Z"/><path class="b" d="M435.7,80a1,1,0,1,1-1,1A1,1,0,0,1,435.7,80Zm0,1.82a.81.81,0,1,0-.82-.81A.81.81,0,0,0,435.7,81.83Zm.34-1a.32.32,0,0,0-.32-.25.4.4,0,0,0-.39.45.42.42,0,0,0,.4.45.31.31,0,0,0,.31-.26h.18a.49.49,0,0,1-.49.43.59.59,0,0,1-.59-.62.57.57,0,0,1,.58-.62.47.47,0,0,1,.5.42Z"/><path class="b" d="M438.35,82h-.9l.44-.85a1.52,1.52,0,0,0,.2-.56c0-.11-.06-.22-.16-.22s-.18.12-.19.33h-.27c0-.31.11-.57.47-.57a.42.42,0,0,1,.43.44,1.79,1.79,0,0,1-.28.74l-.25.45h.51Z"/><path class="b" d="M438.54,81c0-.47,0-.92.44-.92s.44.45.44.92-.06,1-.44,1S438.54,81.61,438.54,81Zm.27,0c0,.54,0,.74.17.74s.17-.17.17-.74,0-.68-.17-.68S438.81,80.5,438.81,81Z"/><path class="b" d="M439.81,82V80.51a1.2,1.2,0,0,1-.24.15v-.24a2.18,2.18,0,0,0,.46-.31h.05V82Z"/><path class="b" d="M440.5,82a6.23,6.23,0,0,0,.38-.65h0a.29.29,0,0,1-.14,0c-.16,0-.34-.14-.34-.64,0-.29.11-.62.45-.62s.45.25.45.63a2.29,2.29,0,0,1-.48,1.24Zm.52-1.23c0-.17,0-.41-.19-.41s-.18.14-.18.41.06.39.17.39S441,81,441,80.75Z"/><path class="b" d="M442.14,80.05h.31c.51,0,.65.48.65,1s-.13,1-.63,1h-.33Zm.27,1.71c.32,0,.41-.33.41-.74s-.14-.74-.41-.74Z"/><path class="b" d="M443.82,80c.46,0,.51.51.51,1s-.1,1-.51,1-.52-.5-.52-1S443.4,80,443.82,80Zm0,1.77c.19,0,.22-.33.22-.82s-.09-.7-.22-.7-.23.19-.23.8C443.59,81.45,443.62,81.78,443.82,81.78Z"/><path class="b" d="M445,80c.46,0,.51.51.51,1s-.09,1-.51,1-.51-.5-.51-1S444.61,80,445,80Zm0,1.77c.19,0,.23-.33.23-.82s-.1-.7-.23-.7-.23.19-.23.8C444.8,81.45,444.84,81.78,445,81.78Z"/><path class="b" d="M446.49,80.05v.23h-.44v.57h.44v.22h-.44V82h-.26V80.05Z"/><path class="b" d="M447.29,80.52c0-.14-.06-.26-.2-.26a.18.18,0,0,0-.17.2.49.49,0,0,0,.18.34l.22.21a.65.65,0,0,1,.24.53.44.44,0,0,1-.46.48.45.45,0,0,1-.47-.46l.25-.08c0,.18.08.32.22.32s.19-.09.19-.24a.51.51,0,0,0-.19-.37l-.21-.21a.67.67,0,0,1-.23-.51.43.43,0,0,1,.43-.46.41.41,0,0,1,.44.43Z"/><path class="b" d="M448,80.29h-.34v-.24h.95v.24h-.34V82H448Z"/><path class="b" d="M448.88,80.05h.27V82h-.27Z"/><path class="b" d="M450.17,80.54c0-.2-.11-.28-.2-.28s-.26.36-.26.74,0,.78.25.78.22-.19.24-.37l.26.09c0,.29-.19.52-.5.52s-.53-.27-.53-1c0-.38.05-1,.54-1,.23,0,.39.15.46.44Z"/><path class="b" d="M451,80.05v.88h0l.43-.88h.29l-.47.91.5,1h-.3L451,81h0v1h-.27V80.05Z"/><path class="b" d="M452.61,80.05v.23h-.44v.57h.44v.22h-.44v.69h.44V82h-.7V80.05Z"/><path class="b" d="M452.85,80.05h.43a.49.49,0,0,1,.5.53.48.48,0,0,1-.33.48l.39.92h-.31l-.35-.88h-.07V82h-.26Zm.26.82c.27,0,.39-.08.39-.31a.27.27,0,0,0-.29-.28h-.1Z"/><path class="b" d="M454.21,81.69a.16.16,0,0,1,.16.15.16.16,0,0,1-.16.16.16.16,0,1,1,0-.31Z"/><path class="b" d="M455.37,80.54c0-.2-.11-.28-.2-.28s-.26.36-.26.74,0,.78.25.78.22-.19.24-.37l.26.09c0,.29-.19.52-.51.52s-.53-.27-.53-1c0-.38.06-1,.55-1,.23,0,.39.15.46.44Z"/><path class="b" d="M456.35,80c.46,0,.51.51.51,1s-.09,1-.51,1-.51-.5-.51-1S455.93,80,456.35,80Zm0,1.77c.19,0,.23-.33.23-.82s-.1-.7-.23-.7-.23.19-.23.8C456.12,81.45,456.16,81.78,456.35,81.78Z"/><path class="b" d="M457.39,80.05l.39,1.29h0l.39-1.29h.28V82h-.25V80.7h0l-.32,1.1h-.21l-.31-1.1h0V82h-.26V80.05Z"/><path class="e" d="M498.5,35.4,454.65,50l-20,21.77a29.83,29.83,0,0,0,4.12,4.71c3.33,3.33,9.09,3.27,13.09.13s5.67-4.5,5.67-4.5l1.71-.44-9,9.75A25.42,25.42,0,0,0,454.59,87c2.81,2.64,7.13,1.41,10.84-2s4.73-5.6,4.73-5.6l25.39,8,13.17,10.45s7.13,9.75,17.22,13.33c9.44,3.34,15.07-.7,15.07-.7L526.39,31.16Z"/><path class="f" d="M498.64,35.25,495,32.06l-23.77,3a77.45,77.45,0,0,1-5.07,6.09c-6.38,7.38-26.13,11-25.86-1.12l20.1-20.29,39.84-9.85,45.28,16.25Z"/><path class="g" d="M432.45,54.13l-1.67,1.57a11.51,11.51,0,0,1-4.27,2.53l-3.45,1.13,2.86,8.72L429.38,67a11.45,11.45,0,0,1,4.93-.49l2.28.27a9.82,9.82,0,0,0,4.17-.42l60.9-20L497,32l-60.9,20A9.6,9.6,0,0,0,432.45,54.13Z"/><path class="g" d="M423.32,60.17l2.33,7.08-8.86-.34a.68.68,0,0,1-.4-1.21Z"/><rect class="b" x="465.42" y="27.69" width="87.45" height="16.45" transform="translate(14.21 160.67) rotate(-18.18)"/><path class="f" d="M510.64,44.09l1.22.87,4.92,15.1S480.44,54,466.92,51c-14.87-3.34-16.24,16.6.28,21,10.68,2.86,46.89,13.55,46.89,13.55,5,17.32,20,25,35.62,26.36l77.39,58.76V108.51L581.31,85.17,547.93,31.84Z"/><path class="b" d="M473.91,55.53,471,66.74s-10.68-.53-11.32-7.58C458.77,48.55,473.91,55.53,473.91,55.53Z"/><path class="b" d="M451.73,28.46l3,.75S447.21,40.37,442,38.29Z"/><path class="g" d="M600.32,11.31l-18,9.76a76,76,0,0,1-8.25,3.25L540.19,35.45l-5.77-17.58L568.31,6.74a74.51,74.51,0,0,1,8.57-2.26l20.27-2.82a3.3,3.3,0,0,1,3.79,2.21l1.12,3.42A3.28,3.28,0,0,1,600.32,11.31Z"/></svg>